<svg xmlns="http://www.w3.org/2000/svg" width="36.778" height="34.125" viewBox="0 0 36.778 34.125">
  <g id="Componente_9_26" data-name="Componente 9 – 26" transform="translate(36.778 34.125) rotate(180)">
    <g id="left-arrow-hand-drawn-triangle" transform="translate(55.025 23.498) rotate(180)">
      <g id="Grupo_309" data-name="Grupo 309" transform="translate(29.397)">
        <path id="Trazado_374" data-name="Trazado 374" d="M40.38,2.02c-.011-.227.046-.628.045-1.013C40.423.489,40.315,0,39.8,0c-.015,0-.029,0-.044,0a.588.588,0,0,0-.187.016A27.405,27.405,0,0,0,29.6,5.284a.444.444,0,0,0-.187.441,1.705,1.705,0,0,0-.019.241.564.564,0,0,0,.228.448.609.609,0,0,0,.059.072A25.737,25.737,0,0,0,39,12.838a.512.512,0,0,0,.311.019,3.776,3.776,0,0,0,.635-.059.558.558,0,0,0,.411-.591c0-.011,0-.022,0-.034C40.36,8.787,40.54,5.4,40.38,2.02Zm-1.146,9.7c-.061-.022,1.354-9.642,1.19-9.7-.776-.293-1.249,2.56-2.179,2.03-.328-.187.136-2.761.136-2.761s-2.1,3.541-3.511,2.133c.9,1.282-.566,1.544,2.546.628C37.644,7.525,39.255,8.245,39.234,11.724Z" transform="translate(-29.397)"/>
      </g>
    </g>
    <g id="moon-hand-drawn-circle" transform="translate(0.001 -16.365)">
      <g id="Grupo_312" data-name="Grupo 312" transform="translate(-0.001 16.365)">
        <path id="Trazado_381" data-name="Trazado 381" d="M18.745,16.365a20.723,20.723,0,0,0-2.4.141c-.377.048-.752.1-1.113.166a2.1,2.1,0,0,0-.64.2A16.591,16.591,0,0,0,.16,31.037c-1.322,9.17,5.624,17.81,15.484,19.261a18.276,18.276,0,0,0,2.652.192h0c9.051,0,16.915-6.155,18.29-14.316.793-4.7-.919-9.864-4.7-14.16A17.159,17.159,0,0,0,18.745,16.365Zm1.061,4.209a13.555,13.555,0,0,1,9.085,4.337,12.876,12.876,0,0,1,3.44,11.356C31.271,41.243,26.039,46.28,18.089,46.28a14.966,14.966,0,0,1-2.7-.24C8.082,44.7,3.141,37.958,4.375,31.011c1.059-5.957,6.3-10.118,12.75-10.118.435,0,.877.02,1.314.058A1.884,1.884,0,0,0,19.806,20.574Z" transform="translate(0.001 -16.365)"/>
      </g>
    </g>
  </g>
</svg>
