<svg xmlns="http://www.w3.org/2000/svg" width="28.105" height="28.105" viewBox="0 0 28.105 28.105"><path d="M35.239,202.961c-1.948-1.948-3.889-3.9-5.758-5.927a1.067,1.067,0,0,0-1.579-.049,1.343,1.343,0,0,0-.2.133c-1.533,1.261-4.99,4.666-6.4,6.062-.68-.618-1.335-1.263-1.987-1.914a1.1,1.1,0,0,0-.814-.347,1.159,1.159,0,0,0-1.738,1.025c.156,4.742.086,9.483,0,14.225a1.164,1.164,0,0,0,1.634,1.079c4.257-.416,8.515-.82,12.772-1.236a1.251,1.251,0,0,0,1.132-1.111,1.093,1.093,0,0,0-.2-1.356c-.886-.887-1.767-1.778-2.592-2.722a67.687,67.687,0,0,1,5.808-5.466,1.316,1.316,0,0,0,.221-1.895A1.176,1.176,0,0,0,35.239,202.961Zm-8.213,7.027a1.229,1.229,0,0,0,.319,1.9,1.3,1.3,0,0,0,.189.305c.477.563.977,1.1,1.487,1.635q-4.917.478-9.835.952c.057-3.424.092-6.846.033-10.269.392.367.791.729,1.2,1.077a1.189,1.189,0,0,0,1.064.264,1.1,1.1,0,0,0,.884-.349c1.349-1.348,4.742-4.713,6.181-5.963,1.466,1.559,2.97,3.082,4.481,4.6C31.6,205.3,28.27,208.615,27.025,209.988Z" transform="translate(141.818 -150.915) rotate(45)"/></svg>