<svg xmlns="http://www.w3.org/2000/svg" width="50.453" height="98.44" viewBox="0 0 50.453 98.44"><defs><style>.a{fill:#5c3e30;stroke:#5c3e30;stroke-width:2px;}</style></defs><path class="a" d="M311.368,306.663a69.617,69.617,0,0,1-8-4.881l-4.907-3.748c-1.5-1.144-3.476,1.4-2.026,2.624,1.668,1.4,3.391,2.7,5.153,3.94l3.68,2.812c-11.32,2.835-23.32,6.373-34.728,2.542-.512-.172-1.018-.368-1.521-.576,7.767-7.808,10.611-25.608-2.427-29.533-6.032-1.816-11.136,2.243-12.846,7.922-1.921,6.375.459,13.3,4.7,18.184a25.1,25.1,0,0,0,4.039,3.745,27.635,27.635,0,0,1-6.177,2.94,55.516,55.516,0,0,1-35.642-.328c-2.027-.731-2.9,2.5-.888,3.223,13.95,5.036,33.34,4.882,46.15-3.716,12.556,6.381,29.346,1.407,42.435-1.726a60.129,60.129,0,0,1-3.014,9.149c-.832,1.98,2.4,2.844,3.223.888a60.194,60.194,0,0,0,3.565-11.575A1.716,1.716,0,0,0,311.368,306.663Zm-54.279-9.811c-.975-3.418-.975-7.426.906-10.566,2.8-4.667,9.049-4.147,11.965.075,5.483,7.941,1.782,15.907-4.507,21.166A19,19,0,0,1,257.089,296.852Z" transform="translate(343.336 -194.578) rotate(94)"></path></svg>