<svg xmlns="http://www.w3.org/2000/svg" width="28.108" height="28.108" viewBox="0 0 28.108 28.108"><path d="M214.36.076c-4.26.386-8.52.76-12.78,1.147a1.25,1.25,0,0,0-1.139,1.1,1.093,1.093,0,0,0,.191,1.358c.88.893,1.755,1.79,2.573,2.74a67.731,67.731,0,0,1-5.846,5.425,1.316,1.316,0,0,0-.233,1.893,1.174,1.174,0,0,0,.3.5c1.934,1.962,3.862,3.929,5.716,5.967a1.068,1.068,0,0,0,1.579.06,1.365,1.365,0,0,0,.2-.132c1.542-1.25,5.023-4.631,6.439-6.018.675.623,1.326,1.272,1.973,1.927a1.107,1.107,0,0,0,.812.354,1.16,1.16,0,0,0,1.745-1.013c-.123-4.742-.02-9.483.1-14.225A1.164,1.164,0,0,0,214.36.076Zm-.9,12.734c-.39-.37-.785-.735-1.195-1.085a1.189,1.189,0,0,0-1.062-.271,1.1,1.1,0,0,0-.886.343c-1.358,1.339-4.775,4.679-6.222,5.919-1.455-1.569-2.949-3.1-4.449-4.628,1.436-1.152,4.791-4.447,6.046-5.812a1.229,1.229,0,0,0-.306-1.9,1.29,1.29,0,0,0-.187-.307c-.473-.566-.969-1.111-1.476-1.646q4.921-.443,9.841-.883C213.48,5.963,213.42,9.386,213.455,12.809Z" transform="translate(-124.618 -139.179) rotate(45)"/></svg>