<svg xmlns="http://www.w3.org/2000/svg" width="70.109" height="76.229" viewBox="0 0 70.109 76.229"><g transform="translate(-1573.251 -1629.62) rotate(-30)"><g transform="translate(543 2206)"><path d="M356.369,164.611c3.732-3.98,7.474-7.953,11.326-11.818,3.365-3.377-1.858-8.6-5.223-5.224-3.852,3.865-7.594,7.838-11.326,11.818C347.893,162.857,353.1,168.093,356.369,164.611Z" transform="translate(-350.117 -146.477)"/><path d="M377.168,278.953c7.55.226,15.1.247,22.653.247,4.763,0,4.763-7.387,0-7.387-7.553,0-15.1-.02-22.653-.246C372.4,271.425,372.416,278.811,377.168,278.953Z" transform="translate(-366.387 -233.146)"/><path d="M390.555,373.595a101.426,101.426,0,0,1-22.9-3.316c-4.606-1.243-6.558,5.883-1.964,7.123a110.554,110.554,0,0,0,24.866,3.579C395.321,381.157,395.3,373.771,390.555,373.595Z" transform="translate(-359.092 -301.442)"/></g></g></svg>