<svg xmlns="http://www.w3.org/2000/svg" width="265.515" height="57.999" viewBox="0 0 265.515 57.999">
  <path id="Trazado_480" data-name="Trazado 480" d="M-270.842,392.664c0-1.2-1.9-1.6-4.74-.8a12.942,12.942,0,0,1-6.637.4c-1.9-.8-3.794-1.2-7.589-1.2a64.165,64.165,0,0,0-7.585.8q-7.113.6-8.535,0c0-.4-.95-.4-1.9,0a9.334,9.334,0,0,1-4.74,0c0-.4-3.794-.8-11.381-.8h-13.277a7,7,0,0,1-2.845-.4,15.524,15.524,0,0,0-4.74-.4,5.276,5.276,0,0,0-3.794,1.6c-.948,1.2-1.9,1.2-4.74.4-1.9-.8-2.845-1.2-3.794-1.2h-8.535l-1.9.4-2.843.4h-2.845c-.949,0-.949-.4-1.9-1.6q0-1.2-5.692,0l-.948.4c-4.74,1.2-8.533.8-9.484-1.6,0-.4-.948-.8-2.843-.8s-2.845.4-2.845.8c-.95,2.806-2.845,3.2-7.587,1.2a13.732,13.732,0,0,0-9.482-2c0-.4,0-.8-.95-.8s-1.9.4-1.9.8l-3.792,1.2c-.95.4-1.9.4-1.9-.4-.948-.4-.948-.8-.948-1.2s0-.4.948-.8c0-2-1.9-2.806-6.637-2.806v-1.2c.948-2.406,1.9-4.41,1.9-6.413a6.809,6.809,0,0,0-2.845-5.612c-.948-1.2,0-2,2.845-2l1.9-2.406c.95-1.6,1.9-2.4.95-2.8,0-.4,0-.4-.95-.4h-3.792l.948-1.6,4.742-2c.948-.4,1.9-1.2.948-1.6a28.586,28.586,0,0,0-4.74.4c-.949.4-2.845,0-4.742-.8s-.948-1.2,2.845-1.2c1.9,0,2.845-.4,2.845-.8s0-.8-.948-1.2c-1.9-.4-1.9-1.2,0-2.8,1.9-1.2.948-2.4-1.9-2.806.948-.4.948-.4.948-.8h1.9a36.256,36.256,0,0,0,14.224-2.806c.95,1.2,2.845,1.2,5.692.8l4.74-.4,10.43-.8c4.744-.4,7.589-.4,8.536.4.948.4,2.845-.4,6.639-1.6,4.74-1.2,8.533-1.6,11.378-.4,4.744,1.2,9.484,1.6,12.329.4a12.92,12.92,0,0,1,9.484,0l3.793-.8c2.845-.4,3.792-.4,4.74.4.95.4,1.9,0,3.792-.4,2.847-.4,4.744-.4,5.692.4l3.792.8,3.793-.8,1.9-.8a12.817,12.817,0,0,1,3.792.8c.948,0,.948.4.948.8.948.4.948.4.948.8.95,0,1.9-.4,1.9-.8v-1.2a1.649,1.649,0,0,1,1.9,0c.948,1.2,3.792,1.2,7.587.8s5.69,0,6.637.4a18.87,18.87,0,0,1,13.277,0,74.174,74.174,0,0,0,15.172,1.2,15.545,15.545,0,0,0,4.742-.4,6.987,6.987,0,0,1,2.845-.4c.95,0,.95.8.95,2h1.9a3.715,3.715,0,0,0,3.792-1.2l1.9-1.2c.948,0,.948.4.948,1.2s.949,1.2,3.793.8c4.744-.8,7.589-.8,9.484,0s2.845.8,2.845.4v-.8c.948-2,3.793-2.4,6.639-1.2a15.812,15.812,0,0,0,5.69.8,24.239,24.239,0,0,1,6.637,1.2c2.845.8,5.69,1.2,7.587.8a48.188,48.188,0,0,1,7.585.4c4.742.4,7.587.8,8.536.4,1.9-.4,2.843,0,2.843.4v.4c.95.4.95.4.95.8v1.2c0,2,1.9,3.605,4.74,4.409-.948.4,0,1.6.949,3.206.95,1.2.95,2.4-.949,3.206-.948.4-.948,1.2,0,1.6,2.847.8,4.744,1.6,4.744,2.406q0,1.8-5.692,3.607c-.948.4-.948.8,0,.8h1.9c5.69,0,6.637,1.2,3.794,3.608-2.845,1.6-3.794,3.206-3.794,5.611a4.738,4.738,0,0,0,.95,3.208c.948,1.2.948,2.8-.95,4.408l-3.794,4.008c0,.4-.948.8-1.9,1.2s-1.9,0-4.742-.8c-.948.4-2.845.8-4.74,1.6l-1.9,2c-.948-1.2-1.9-1.2-4.74-.4s-4.74,1.2-5.69.8c-6.639-1.2-10.432-1.6-13.277-.4-.948-1.2-2.845-1.2-6.639-.8a30.365,30.365,0,0,1-8.533,0,30.817,30.817,0,0,0-14.224-2.006l-19.914.4Zm-143.193-4.409c0,.8-.95,1.2-1.9,1.2s-.948-.4-.948-1.2Z" transform="translate(435.531 -340.063)" fill="#D56E1C" stroke="#D56E1C" stroke-linecap="round" stroke-linejoin="round" stroke-width="5"/>
</svg>
