<svg xmlns="http://www.w3.org/2000/svg" width="246.333" height="57.996" viewBox="0 0 246.333 57.996"><defs><style>.a{fill:#F0949C;stroke:#F0949C;stroke-linecap:round;stroke-linejoin:round;stroke-width:5px;}</style></defs><path class="a" d="M-282.774,392.664c0-1.2-1.758-1.6-4.391-.8a11.145,11.145,0,0,1-6.149.4c-1.758-.8-3.515-1.2-7.03-1.2a55.223,55.223,0,0,0-7.027.8q-6.59.6-7.907,0c0-.4-.88-.4-1.758,0a8.033,8.033,0,0,1-4.391,0c0-.4-3.515-.8-10.544-.8h-12.3a6.043,6.043,0,0,1-2.636-.4,13.364,13.364,0,0,0-4.391-.4,4.711,4.711,0,0,0-3.515,1.6c-.878,1.2-1.758,1.2-4.391.4-1.758-.8-2.636-1.2-3.515-1.2h-7.907l-1.758.4-2.634.4h-2.636c-.88,0-.88-.4-1.758-1.6q0-1.2-5.273,0l-.878.4c-4.391,1.2-7.9.8-8.786-1.6,0-.4-.878-.8-2.634-.8s-2.636.4-2.636.8c-.88,2.806-2.635,3.2-7.029,1.2a11.962,11.962,0,0,0-8.784-2c0-.4,0-.8-.88-.8s-1.756.4-1.756.8l-3.513,1.2c-.88.4-1.759.4-1.759-.4-.878-.4-.878-.8-.878-1.2s0-.4.878-.8c0-2-1.756-2.806-6.149-2.806v-1.2c.878-2.406,1.758-4.41,1.758-6.413a7,7,0,0,0-2.636-5.612c-.878-1.2,0-2,2.636-2l1.756-2.406c.88-1.6,1.758-2.4.88-2.8,0-.4,0-.4-.88-.4h-3.513l.878-1.6,4.393-2c.878-.4,1.758-1.2.878-1.6a24.576,24.576,0,0,0-4.391.4c-.88.4-2.636,0-4.393-.8s-.878-1.2,2.635-1.2c1.758,0,2.636-.4,2.636-.8s0-.8-.878-1.2c-1.758-.4-1.758-1.2,0-2.8,1.756-1.2.878-2.4-1.758-2.806.878-.4.878-.4.878-.8h1.758a31.469,31.469,0,0,0,13.178-2.806c.88,1.2,2.636,1.2,5.273.8l4.391-.4,9.662-.8c4.395-.4,7.03-.4,7.908.4.878.4,2.636-.4,6.151-1.6,4.391-1.2,7.9-1.6,10.54-.4,4.395,1.2,8.786,1.6,11.422.4a11.153,11.153,0,0,1,8.786,0l3.513-.8c2.636-.4,3.513-.4,4.391.4.88.4,1.758,0,3.513-.4,2.637-.4,4.395-.4,5.273.4l3.513.8,3.513-.8,1.759-.8a11.125,11.125,0,0,1,3.513.8c.878,0,.878.4.878.8.878.4.878.4.878.8.88,0,1.758-.4,1.758-.8v-1.2c.878-.4.878-.4,1.758,0,.878,1.2,3.513,1.2,7.029.8s5.271,0,6.149.4a16.281,16.281,0,0,1,12.3,0,63.8,63.8,0,0,0,14.056,1.2,13.381,13.381,0,0,0,4.393-.4,6.036,6.036,0,0,1,2.635-.4c.88,0,.88.8.88,2h1.756a3.287,3.287,0,0,0,3.513-1.2l1.758-1.2c.878,0,.878.4.878,1.2s.88,1.2,3.513.8c4.395-.8,7.03-.8,8.786,0s2.636.8,2.636.4v-.8c.878-2,3.513-2.4,6.151-1.2a13.668,13.668,0,0,0,5.271.8,20.973,20.973,0,0,1,6.149,1.2c2.635.8,5.271,1.2,7.029.8a41.4,41.4,0,0,1,7.027.4c4.393.4,7.029.8,7.908.4,1.756-.4,2.634,0,2.634.4v.4c.88.4.88.4.88.8v1.2c0,2,1.756,3.605,4.391,4.409-.878.4,0,1.6.88,3.206.88,1.2.88,2.4-.88,3.206-.878.4-.878,1.2,0,1.6,2.637.8,4.395,1.6,4.395,2.406q0,1.8-5.273,3.607c-.878.4-.878.8,0,.8h1.758c5.271,0,6.149,1.2,3.515,3.608-2.635,1.6-3.515,3.206-3.515,5.611a5.016,5.016,0,0,0,.88,3.208c.878,1.2.878,2.8-.88,4.408l-3.515,4.008c0,.4-.878.8-1.756,1.2s-1.758,0-4.393-.8c-.878.4-2.636.8-4.391,1.6l-1.759,2c-.878-1.2-1.756-1.2-4.391-.4s-4.391,1.2-5.271.8c-6.151-1.2-9.664-1.6-12.3-.4-.878-1.2-2.636-1.2-6.151-.8a26.082,26.082,0,0,1-7.9,0,26.646,26.646,0,0,0-13.178-2.006l-18.449.4Zm-132.656-4.409c0,.8-.88,1.2-1.758,1.2s-.878-.4-.878-1.2Z" transform="translate(435.524 -340.063)"/></svg>

