<svg xmlns="http://www.w3.org/2000/svg" width="276.219" height="75.459" viewBox="0 0 276.219 75.459">
  <path id="Trazado_480" data-name="Trazado 480" d="M-264.16,409.171c0-1.6-1.975-2.13-4.935-1.064a10.69,10.69,0,0,1-6.911.53c-1.975-1.064-3.951-1.6-7.9-1.6a52.883,52.883,0,0,0-7.9,1.066q-7.406.8-8.886,0c0-.534-.989-.534-1.975,0s-2.962.53-4.935,0c0-.534-3.951-1.066-11.85-1.066h-13.824a5.845,5.845,0,0,1-2.962-.534c-.987-.532-2.96-.532-4.936-.532a4.967,4.967,0,0,0-3.951,2.132c-.987,1.6-1.975,1.6-4.935.53-1.975-1.064-2.962-1.6-3.951-1.6H-362.9l-1.975.532-2.96.534H-370.8c-.989,0-.989-.534-1.975-2.132q0-1.6-5.926,0l-.987.532c-4.936,1.6-8.884,1.066-9.875-2.13,0-.532-.987-1.066-2.96-1.066s-2.962.534-2.962,1.066c-.989,3.731-2.962,4.261-7.9,1.6a11.836,11.836,0,0,0-9.873-2.664c0-.532,0-1.066-.989-1.066s-1.973.534-1.973,1.066l-3.949,1.6c-.989.532-1.977.532-1.977-.532a1.511,1.511,0,0,1-.987-1.6c0-.534,0-.534.987-1.066,0-2.664-1.973-3.73-6.911-3.73v-1.6c.987-3.2,1.975-5.863,1.975-8.525a10.052,10.052,0,0,0-2.962-7.461c-.987-1.6,0-2.664,2.962-2.664l1.973-3.2c.989-2.13,1.975-3.2.989-3.729,0-.534,0-.534-.989-.534h-3.949l.987-2.13,4.937-2.664c.987-.532,1.975-1.6.987-2.132a23.464,23.464,0,0,0-4.936.534c-.989.532-2.962,0-4.937-1.066s-.987-1.6,2.962-1.6c1.975,0,2.962-.532,2.962-1.066a1.514,1.514,0,0,0-.987-1.6c-1.975-.53-1.975-1.6,0-3.729,1.973-1.6.987-3.2-1.975-3.73.987-.534.987-.534.987-1.064h1.975a30.843,30.843,0,0,0,14.81-3.731c.989,1.6,2.962,1.6,5.926,1.064l4.936-.532,10.86-1.064c4.939-.534,7.9-.534,8.888.532.987.532,2.962-.532,6.913-2.132,4.936-1.6,8.884-2.13,11.846-.532,4.939,1.6,9.875,2.132,12.837.532a10.768,10.768,0,0,1,9.875,0l3.949-1.066c2.962-.532,3.949-.532,4.936.534.989.532,1.975,0,3.949-.534,2.964-.532,4.939-.532,5.926.534l3.949,1.066,3.949-1.066,1.977-1.066a10.908,10.908,0,0,1,3.949,1.066c.987,0,.987.532.987,1.066.987.532.987.532.987,1.066.989,0,1.975-.534,1.975-1.066v-1.6c.987-.532.987-.532,1.975,0,.987,1.6,3.949,1.6,7.9,1.066s5.924,0,6.911.534c3.949-2.132,8.886-2.132,13.824,0,3.949,1.066,8.884,1.6,15.8,1.6,1.975,0,3.949,0,4.938-.532a5.838,5.838,0,0,1,2.962-.534c.989,0,.989,1.066.989,2.664h1.973c.989.532,2.962,0,3.949-1.6l1.975-1.6c.987,0,.987.532.987,1.6s.989,1.6,3.949,1.064c4.939-1.064,7.9-1.064,9.875,0s2.962,1.066,2.962.534v-1.066c.987-2.664,3.949-3.2,6.913-1.6a13.246,13.246,0,0,0,5.924,1.066,20.381,20.381,0,0,1,6.911,1.6c2.962,1.066,5.924,1.6,7.9,1.066a39.436,39.436,0,0,1,7.9.532c4.937.534,7.9,1.064,8.888.534,1.973-.534,2.96,0,2.96.53v.534c.989.534.989.534.989,1.066v1.6c0,2.663,1.973,4.793,4.936,5.861-.987.532,0,2.132.989,4.263.989,1.6.989,3.2-.989,4.263a1.137,1.137,0,0,0,0,2.13c2.964,1.066,4.939,2.132,4.939,3.2q0,2.4-5.926,4.795c-.987.534-.987,1.066,0,1.066h1.975c5.924,0,6.911,1.6,3.951,4.8-2.962,2.13-3.951,4.263-3.951,7.459a7.621,7.621,0,0,0,.989,4.264c.987,1.6.987,3.729-.989,5.861l-3.951,5.329c0,.532-.987,1.066-1.973,1.6s-1.975,0-4.937-1.064c-.987.534-2.962,1.064-4.936,2.13l-1.977,2.664c-.987-1.6-1.973-1.6-4.935-.53s-4.936,1.6-5.924,1.064c-6.913-1.6-10.862-2.13-13.824-.534-.987-1.6-2.962-1.6-6.913-1.064a24.838,24.838,0,0,1-8.884,0,25.842,25.842,0,0,0-14.81-2.666l-20.735.534Zm-149.093-5.861c0,1.066-.989,1.6-1.975,1.6s-.987-.532-.987-1.6Z" transform="translate(435.513 -340.063)" fill="#839D4B" stroke="#839D4B" stroke-linecap="round" stroke-linejoin="round" stroke-width="5"/>
</svg>
