<svg xmlns="http://www.w3.org/2000/svg" width="86.078" height="48.298" viewBox="0 0 86.078 48.298"><defs><style>.a{fill:#fff;}</style></defs><g transform="translate(131.078 -107.9)"><path class="a" d="M169.805,182.346c0-6.383-4.031-7.2-7.674-7.8-2.639-.43-4.891-.645-4.891-3,0-2.324,1.908-2.725,3.959-2.725a28.029,28.029,0,0,1,6.383,1,.593.593,0,0,0,.818-.5l.473-2.754c.1-.6-.287-.846-.7-.975a27.8,27.8,0,0,0-7.674-1.148c-5.293,0-9.238,1.721-9.238,7.8,0,5.824,4.4,6.9,7.617,7.43,2.7.473,4.82.646,4.82,3.1,0,2.252-1.75,2.855-4.131,2.855a28.811,28.811,0,0,1-6.7-1.148c-.445-.129-.861.029-.918.531l-.445,2.625c-.129.746.158.975.545,1.1a28.36,28.36,0,0,0,8.506,1.277c4.877.029,9.252-1.865,9.252-7.674m-21.7-13.527v-3.486a.49.49,0,0,0-.5-.5H132.5a.57.57,0,0,0-.574.545v23.769a.58.58,0,0,0,.574.545h4.82a.552.552,0,0,0,.574-.545v-8.478h8.664a.482.482,0,0,0,.5-.5v-3.5a.49.49,0,0,0-.5-.5h-8.664v-6.828H147.6a.486.486,0,0,0,.5-.516m-22.435,20.355V164.889a.453.453,0,0,0-.5-.5l-4.92.645c-.316.029-.545.2-.545.473v23.668a.518.518,0,0,0,.545.5h4.92a.482.482,0,0,0,.5-.5" transform="translate(-214.805 -48.382)"/><path class="a" d="M-127.983,108.66a1.63,1.63,0,0,1,1.32-.76h5.8a1.626,1.626,0,0,1,1.32.76l2.9,5.021a1.6,1.6,0,0,1,0,1.521l-2.9,5.021a1.63,1.63,0,0,1-1.32.76h-5.8a1.626,1.626,0,0,1-1.32-.76l-2.9-5.021a1.6,1.6,0,0,1,0-1.521Z"/><path class="a" d="M-39.083,270.26a1.63,1.63,0,0,1,1.32-.76h5.8a1.626,1.626,0,0,1,1.32.76l2.9,5.021a1.6,1.6,0,0,1,0,1.521l-2.9,5.021a1.63,1.63,0,0,1-1.32.76h-5.8a1.626,1.626,0,0,1-1.32-.76l-2.9-5.021a1.6,1.6,0,0,1,0-1.521Z" transform="translate(-76.148 -138.419)"/><path class="a" d="M-39.083,165.16a1.63,1.63,0,0,1,1.32-.76h5.8a1.626,1.626,0,0,1,1.32.76l2.9,5.021a1.6,1.6,0,0,1,0,1.521l-2.9,5.021a1.63,1.63,0,0,1-1.32.76h-5.8a1.626,1.626,0,0,1-1.32-.76l-2.9-5.021a1.6,1.6,0,0,1,0-1.521Z" transform="translate(-76.148 -48.395)"/><path class="a" d="M143.727,390.959a5.422,5.422,0,0,1-1.248.158c-1.047,0-1.578-.215-1.578-2.238,0-1.922.445-2.209,1.549-2.209a6.229,6.229,0,0,1,1.277.158v4.131Zm1.291-.029v-7.488a.157.157,0,0,0-.2-.172l-.932.186a.19.19,0,0,0-.172.2v1.607l.115.674a6.515,6.515,0,0,0-1.664-.215c-2.037,0-2.6,1.076-2.6,3.184,0,2.281.646,3.156,2.883,3.156a7.033,7.033,0,0,0,1.85-.244c.7-.186.717-.545.717-.889m-7.99-2.037c0,1.406-.057,2.223-1.449,2.223s-1.463-.818-1.463-2.223.057-2.238,1.463-2.238,1.449.832,1.449,2.238m1.348,0c0-1.764-.3-3.17-2.8-3.17s-2.812,1.42-2.812,3.17.316,3.156,2.812,3.156,2.8-1.406,2.8-3.156m-8.033,0c0,1.406-.057,2.223-1.449,2.223s-1.463-.818-1.463-2.223.057-2.238,1.463-2.238,1.449.832,1.449,2.238m1.348,0c0-1.764-.3-3.17-2.8-3.17s-2.812,1.42-2.812,3.17.316,3.156,2.812,3.156,2.8-1.406,2.8-3.156m-6.484-4.547v-.76a.19.19,0,0,0-.186-.186H119.9a.2.2,0,0,0-.2.186v8.133a.193.193,0,0,0,.2.186h1a.2.2,0,0,0,.2-.186v-3.1h3.543a.19.19,0,0,0,.186-.186v-.76a.188.188,0,0,0-.186-.172h-3.543v-2.955h3.916a.2.2,0,0,0,.186-.2" transform="translate(-214.805 -235.866)"/></g></svg>