<svg xmlns="http://www.w3.org/2000/svg" width="298.938" height="110" viewBox="0 0 298.938 110"><defs><style>.a{fill:#7eaf00;}.b{fill:#006726;}.c{fill:#161615;}</style></defs><g transform="translate(-168.115 -139.049)"><g transform="translate(168.115 139.049)"><g transform="translate(216.752)"><path class="a" d="M618.224,166.04l.42-.184A1.01,1.01,0,0,0,618.224,166.04Z" transform="translate(-570.741 -149.828)"/><path class="a" d="M611.465,161.831l.137-.253C611.544,161.594,611.505,161.718,611.465,161.831Z" transform="translate(-568.023 -148.108)"/><path class="a" d="M578.143,156.5a.311.311,0,0,0-.025-.119C578.079,156.5,578.108,156.515,578.143,156.5Z" transform="translate(-554.607 -146.016)"/><path class="a" d="M600.438,143.856l.046.037-.033-.074Z" transform="translate(-563.589 -140.967)"/><path class="a" d="M610.431,153.088c-.312.084-1.163.2-1.331.033l-.047.184c-1.217.142-.126-.383-1.619-.241l.321.027a5.043,5.043,0,0,1-.806.181c-.1-.035.094-.093.209-.154-.4.154-.79.285-1.167.469-.074-.092-.041-.157.183-.293-1.1.27.29.261-1.059.528-.261-.005.053-.135.215-.241a3.33,3.33,0,0,0-1.623.605c-.066-.149.355-.28-.2-.193.134.043.246.154-.141.31.129-.228-.328.036-.719.163.1.019.1.1-.035.191-.174.1-.354.114-.6.247.173-.023.342-.053.517-.068a4.571,4.571,0,0,1-1.515.595.575.575,0,0,1,.183-.17,4.356,4.356,0,0,0-1.62.9l.039-.051c-1.009.887.481-.007-.692.995-.407.262-.16-.549-.909.255.176-.049.142.082-.023.313s-.507.591-.749.85a6.883,6.883,0,0,0,.471-.812c-.116.088-.349.411-.407.419l-.035.122c-.177.469-.471.426-.833.882a10.328,10.328,0,0,0,1.18-1.87c-.066.123-.147.258-.237.4a2.838,2.838,0,0,1-.246.344c-.083.078-.083-.026,0-.251a1.076,1.076,0,0,0,.354-.343c.065-.143-.033-.012-.121-.182a.926.926,0,0,1-.08-.152l-.054-.441c-.038-.28-.076-.555-.108-.789.178.265.3-.126.428.306a5.161,5.161,0,0,0-.032-1.14l.244.322c-.256-.469-.121-.987-.42-.889a.523.523,0,0,1,.083.321c-.093-.024-.29-.207-.3-.777.055-.4.128.214.208.1-.131-.359.027-.4-.127-.77l-.062.356c-.224-.236-.132-.619-.292-.972.163.428.234.266.3.074l-.017.029c-.066-.273-.259-.6-.2-.817l.284.173a2.817,2.817,0,0,0-.275-.357c-.022-.155.024-.287.154-.049-.279-1.269-.485.191-.818-1.455.094-.008.212.143.309.591.163.02.207-.115.107-.57.007-.012.016-.008.024-.013a7.5,7.5,0,0,0-1.265-2.272c-.032-.181.117-.053.266.075-.44-.872-.75-1.06-1.217-1.953l.2.435a8.268,8.268,0,0,1-1.444-1.943l.161.1c-.49-.392-.925-1.294-1.205-1.4.111.239-.1.077.107.414-.393-.341-.761-.7-1.172-1.021l.093-.257-.639-.513c.085.2-.75-.8-.924-.636-.283-.378.267-.013.455.029-.391-.253-.349-.375-.771-.541l-.209-.459c-.336-.222-.689-.426-1.034-.635.06.021.011-.038.069-.017a3.518,3.518,0,0,1-.609-.369l-.351-.257c-.061-.081-.129-.023-.2.018l-.2.118a2.962,2.962,0,0,0-1.095.863c.024-.029.01-.032.011-.05a6.45,6.45,0,0,1-1.375.944c-.474.4-.083.319-.05.408-1.46,1-.973.731-1.941,1.862-.837.415.488-1.035-.486-.4a6.149,6.149,0,0,1-1.087,1.525l-1.074,1.067a14.657,14.657,0,0,1-1.036,1.109l.2.029c-.2.331-.342.7-.514,1.046l.108-.706c-.043.194-.239.761-.353,1.137-.392,1.143-.648.451-.8,1.413l-.087.06a18.736,18.736,0,0,1-.52,1.947l-.134-.372a5.224,5.224,0,0,1,.233-.552c-.341.227-.249.958-.422,1.507-.077.6.189.356.185.682a3.014,3.014,0,0,1-.144.692c-.17.5-.276.013-.34-.172a4.711,4.711,0,0,1,.068,1.659c-.116.043-.156-.035-.161-.172a.847.847,0,0,0,.127.524l-.15.334c-.254,1.153.373,1.154.342,2.505-.142-.355.091,1.166.024,1.593-.094-.467-.3.266-.476,0,.056,1.112.309.405.51,1.272l-.343-.309c.27.829.187.183.424,1.029-.127-.221,0,.4-.188-.1.217,1.123.157.833.378,1.816l.286.01a.774.774,0,0,1,.006.575c-.041-.133-.087-.345-.116-.316-.132.445.3.581.224,1.076.05-.133.129-.288.266.1-.2-.075.041.654-.01.7.026-.287.335.827.534.813.052.491-.178-.094-.273-.089.332.3.63,1.554.891,1.839-.013.014-.016.037-.026.04.324.41.688,1.167,1.313,1.968l-.3-.235c.4.934.572.4.963,1.128-.139-.023.029.278.193.554.169.294.367.606.165.52l.293.306c.035.083.107.03.176-.024l.191-.132a3.084,3.084,0,0,0,.325-.262l.276-.13a1.267,1.267,0,0,1-.183.192c-.175.158-.4.326-.011.184.28-.17.413-.285.627-.43l.167.054c-.013-.092.536-.376.476-.425.164.081.465.044.487.156a7.332,7.332,0,0,0,1.273-.706l.063.047c.249-.442,1.168-.714,1.213-1.07l.316-.011a.791.791,0,0,0,.447-.624c.22-.136.441-.272.653-.408-.013.13.719-.3.884-.317a5.44,5.44,0,0,0,1.262-1.091c-.254.362.032.308-.582.759a.665.665,0,0,0,.3-.105c-.387.655-.773,1.507-1.1,2.142-.225.21-.2.011-.111-.283-.157.45-.39.923-.578,1.371l-.161.4c-.06.155-.11.3-.151.436a2.943,2.943,0,0,0-.087.361,1.183,1.183,0,0,0,.356.128c-.408-.105.414.322.7.54.029-.05.123-.082.156-.054a14.916,14.916,0,0,1,2.276,1.072l-.255-.03a7.9,7.9,0,0,0,1.8.648c.074.016.149.035.223.052.589.243,1.163.459,1.715.639.122.106-.366.115.186.264a1.719,1.719,0,0,0,.36-.1q.319.1.63.176l-.062.1.381-.023a16.037,16.037,0,0,0,1.634.31l.036.005a10.278,10.278,0,0,0,5.54-.641.766.766,0,0,1-.217.261,2.043,2.043,0,0,0,.845-.563c.15-.081.3-.164.443-.253a.643.643,0,0,1,.167-.049c.017-.027.052-.069.082-.106a10.236,10.236,0,0,0,2.713-2.679.971.971,0,0,0,.174-.185c.034-.059.029-.08.008-.085.078-.116.155-.232.229-.35,0,.036,0,.074.007.088a2.73,2.73,0,0,0,.468-.908c3.46-6.4,2.968-16.138,2.909-17.1.038-.049.05-.094,0-.132C611.02,153.363,611.339,153.264,610.431,153.088Zm-20.507,14.729c-.041.071-.075.136-.115.206-.057-.014-.074-.075-.071-.186.062-.056.126-.106.19-.171C589.928,167.714,589.927,167.765,589.924,167.817Z" transform="translate(-553.716 -139.049)"/><path class="a" d="M610.743,157.87a8.545,8.545,0,0,0,.377.994C611.137,158.766,610.877,157.79,610.743,157.87Z" transform="translate(-567.733 -146.615)"/><path class="a" d="M596.795,196.235a.522.522,0,0,0-.139-.14C596.631,196.136,596.654,196.191,596.795,196.235Z" transform="translate(-562.065 -161.987)"/><path class="a" d="M588.284,193.856c.249-.212.325-.322.311-.387A.583.583,0,0,0,588.284,193.856Z" transform="translate(-558.702 -160.931)"/><path class="a" d="M576.127,163.407c.031.322-.021.758-.02,1.117C576.1,164.216,576.245,163.643,576.127,163.407Z" transform="translate(-553.805 -148.843)"/><path class="a" d="M603.045,199.165l.388.055,0-.039Z" transform="translate(-564.637 -163.221)"/><path class="a" d="M597.606,196.566a3,3,0,0,1,.552.181C598.041,196.647,597.489,196.425,597.606,196.566Z" transform="translate(-562.444 -162.158)"/><path class="a" d="M594.985,189.315l-.051.189.2-.247Z" transform="translate(-561.376 -159.237)"/><path class="a" d="M559.557,187.915c-.182-.2.065-.741-.047-.914a.352.352,0,0,1,.041-.008c-.108-.233-.115-.6-.293-1.045l.155.155c.074-.443-.327-.276-.321-.635.227.074-.036-.6.218-.444a3.117,3.117,0,0,0-.286-.427c0-.053-.008-.108-.013-.161.108.074.233.31.262.1l-.141-.3.116-.067c-.087,0-.131-.271-.2-.249.138-.064.223-.2.334-.2-.066-.191.031-.492-.132-.634l.067-.027c-.3-.138-.168-.587-.472-.614l.117-.154c-.078-.219-.246-.195-.365-.221-.03-.106-.064-.212-.1-.319.106,0,.029-.36.082-.45-.032-.151-.246-.558-.415-.616.2.112.265-.039.407.267.175-.268-.244-.458-.387-.8l.115-.053a.837.837,0,0,0-.715-.41c-.014-.023-.031-.045-.044-.068.071-.05.145-.053.311-.016a4.473,4.473,0,0,0-.751-1.093c.008-.17.11-.145.234-.067-.342-.269-.605-.745-.988-.736.148,0-.062-.178-.143-.318-.039.042-.112.078-.12.06a2.385,2.385,0,0,1-.936-.6l.136-.006a2.028,2.028,0,0,0-.93-.364c-.205-.123-.422-.24-.645-.353-.038-.1.21-.127-.016-.243-.091.015-.152.086-.237.114-.075-.036-.161-.067-.239-.1l.07-.114-.207.055c-.2-.087-.39-.177-.6-.257a1.561,1.561,0,0,0-.216-.07,15.018,15.018,0,0,0-2.2-.6.377.377,0,0,1,.153-.145.8.8,0,0,0-.491.092c-.052-.009-.108-.016-.16-.025a.186.186,0,0,1-.088-.069c-.02.023-.064.026-.093.041q-.768-.12-1.616-.186a.225.225,0,0,0-.108-.056c-.032,0-.036.019-.033.044-.065,0-.125-.011-.19-.016a.129.129,0,0,0,.042-.063.729.729,0,0,0-.469.034,36.545,36.545,0,0,0-7.51.529.143.143,0,0,0-.114.007c-.164-.12-.262-.273-.426.13.1.141.216.51.025.58l.183.023c.09.527-.378.048-.358.694l.056-.138c.014.121.136.213.082.352-.048.043-.078-.043-.121-.094l.274.517a.206.206,0,0,1-.251-.088c.041.487.326-.119.295.477-.072.113-.115-.029-.181-.1-.136.288.029.462.153.734-.161.022-.16-.169-.242.078.082-.057.216-.1.255.077-.175-.068-.07.146-.089.326a.108.108,0,0,1,.167.026c.037.082-.019.164.007.282l.133-.235c.187.277-.013.476-.048.716a.16.16,0,0,1-.076-.094.984.984,0,0,0,.086.8l-.025-.022c.271.535.231-.225.514.4.018.22-.545.014-.239.469.085-.268.394.242.542.5l-.386-.205c.026.115.17.286.156.357l.065-.033c.253-.1.066.37.284.522-.426-.139-.361-.177-.725-.118a1.067,1.067,0,0,1,.585.682l-.368-.205c.1.512.713.926,1.085,1.2-.233-.019-.237.169-.47.072.072.147.157.288.242.429l-.268-.03c.3.085.251.352.511.189-.06-.03-.089-.008-.121-.1a.311.311,0,0,1,.389.193c.007.185-.147-.035-.2.045.182.087,0,.191.164.3l.045-.192c.205.023.141.236.3.336-.163-.133-.22-.03-.275.087l.015-.02c.07.1.255.177.209.3l-.261.033.243.066c.008.075-.041.163-.138.085.169.561.428-.285.643.44-.083.042-.179.01-.245-.185-.141.053-.187.141-.118.339-.007.009-.014.011-.021.016a1.987,1.987,0,0,0,.807.832c0,.1-.1.078-.2.052.2.4.477.349.679.783l-.084-.216a1.589,1.589,0,0,1,.784.762l-.1-.008c.308.066.469.572.654.53-.047-.13.079-.1-.021-.259l.661.27-.093.237c.12.044.23.1.354.132-.03-.129.4.3.517.1.141.178-.163.126-.278.173.218.036.19.141.425.105l.089.292c.188.032.381.048.567.07-.034.008-.008.035-.04.044.3-.086.548.361.954.132-.019.007-.017.018-.026.03.215-.115.578.118.719.2.275.035.158-.171.191-.257.747.206.519.141,1.19,0,.349.339-.523.352-.053.629a1.462,1.462,0,0,1,.84-.212c.349.14.946.225,1.3.4l-.036-.178.5-.1-.282.262c.081-.062.334-.176.5-.265.509-.192.32.364.706.06a.32.32,0,0,1,.042.053c.119-.148.465-.129.851-.215l-.109.239-.262-.025c.163.207.423-.07.667-.105.246-.119.091-.283.217-.372.093,0,.219-.094.3-.042.235.032.069.261.013.369.157-.263.228-.245.643-.409.044.1.022.157-.032.188a.322.322,0,0,0,.184-.21l.171.1c.526.071.389-.527.975-.592-.124.153.487-.139.7-.05-.187.094.182.294.1.463.479-.057.111-.315.463-.477l-.07.319c.322-.227.045-.173.382-.368-.077.109.182.024-.007.177l.942-.247-.1-.256a.633.633,0,0,1,.445,0c-.087.035-.234.074-.2.1.519.147.17-.362.443-.541-.1.047-.224.055-.184-.209.146.14.233-.379.292-.326-.131.1.011-.4-.169-.45C559.5,187.613,559.469,187.889,559.557,187.915Z" transform="translate(-538.808 -153.304)"/></g><g transform="translate(0 39.968)"><path class="b" d="M196.368,213.715c-.254-.232-.273-.408.1-.589-.476.051-.455-.469-.288-.685-.524-.21-1.2-.036-1.158-.881-.178.458-.367.386-.675.39-1.268-.487-2.01.046-2.508-.978-.154.155-.747.47-.868.194a1.122,1.122,0,0,0-1.062.393c-.1.383-.59-.367-.868-.295-.436-.021-.621.575-.965.1,0-.1.1-.2.194-.294-.16-.158-.309-.3-.483-.1-.171.27-1.487.086-1.543.489-.189.194-.318.117-.29-.2.141-.824-.446-.813-.675-.2.018.251.032.468-.29.393-.111-.132-.158-.093-.288-.1-.474.775-.786.155-1.351,0-.314.418.193.818-.675.587a3.007,3.007,0,0,0-2.508-.1c-.832-.329-3.561-.262-4.245-.589-.374.66-.922-.032-1.448.1a3.2,3.2,0,0,1-2.025.1c-.1-.295-.193-.489-.387-.489-.261-.051-.781.529-1.158.587-3.422,0-2.771,2.97-2.6,5.582.435.676-.488,2.236.29,2.546,0,.1,0,.1.1.1.1.1.193.2.193.292a3.268,3.268,0,0,1-.677.393c-.2.263.01.6.1.881.209.383.055.3,0,.488.563.382-.4.66,0,1.077.275.812-.316,4.354.193,5.288-.432,1.055,0,3.277.1,4.5a.788.788,0,0,1-.1.491c.147.233.052.6.482.685-1.405,1.088.063,2.649-.385,3.427a.6.6,0,0,0,.193.589c.55.195-.315.783.1,1.174-.5.627-.194,1.326.1,1.959-.56.8.395,2.334,0,2.841v1.468c.291.007.39.219.193.393v.1c-.139.105-.143.365,0,.39.433.45.046.863-.288,1.372h.1c1,1.142.3,1.126,0,2.349-.018.549.146,1.119.1,1.665.976.972-.043,4.91.868,6.463l-.1.2c-.661-.017-.557.528-.194.881a11.357,11.357,0,0,0,.1,2.447c.006.215-.041.5.1.685.043.083.212.411,0,.392-.207.16.091,1.882-.484,1.959l.1.194c.656.491.066,1.282.1,1.959.726,1.133-.026,1.275-.291,2.546.223.857.9,2.362-.193,2.84-.1.282.67.689.29.783-.062.135-.177.263,0,.392a2.624,2.624,0,0,1-.289,1.419c.319.482-.184.679-.1,1.274-.029.63,1.14,1.482,1.351,1.861.229-.037,1.05-.593,1.255-.294.369.418.443-.407.578-.49.428,1.043,1.476.539,2.218.784,1.855-.065,3.319.489,5.114-.343h.385c.21.262.9.188,1.255.2l.1-.1a.809.809,0,0,1,.579.2c1.358-.645,3-.044,4.534.1a1.657,1.657,0,0,1,1.93.587l.1-.1c-.013-.19.436-.3.579-.1h.193a.784.784,0,0,0,.288-.587h.29c-.068.306.5.684.868.393.276-.322.588-.276.578.292.1,0,.1,0,.193.1l.1-.1c-.038-.72,1.734-.434,2.218-.489,1.339.068,1.888-1.408,1.448-2.742.184-.334.014-.671.385-.979a1.421,1.421,0,0,1,.193-1.959,10.492,10.492,0,0,1-.1-2.84c.035-.09-.414-.279-.482-.292-.332-.2-.721-.475-.675-.881-.969.066-1.433-.546-2.219.1-.4-.071-1.249-.676-1.737-.295-.1,0-.1,0-.193.1H190a.862.862,0,0,0-.868,0c-.022-.539-.36-.484-.677-.1a3.945,3.945,0,0,0-2.218,0c-.563-.261-.832-.213-1.352.294-.365-.169-1.048-.662-1.446-.2a1.081,1.081,0,0,0-1.349,0c-.214-.429-.664-.158-.774-.393.79-.367.487-1.846.87-2.448.314-.535-.395-1.705-.29-2.447a.364.364,0,0,0,.1-.295l-.1-.1c.03-.127-.083-.576.1-.587.605-.68-.461-1.722.288-2.352a3.324,3.324,0,0,1-.385-2.153,5.023,5.023,0,0,1,.29-2.45c-.435-.288-.142-1.2-.58-1.37v-.294c.466-.328-.059-.59-.193-.979.007-.216.442-.276.58-.391.289-.208.555-.246.771.1.456-.385,1.095.514,1.447-.2a2.227,2.227,0,0,1,.771-.1c.264.395.749-.336,1.061-.294.487-.049.746.444,1.158,0,.394.364.639.419,1.062,0,.367-.08.584.174.868.2.213.013.45-.341.675-.292.576.6,2.9.344,3.858.39.9.475,2.9-1.953,2.606-2.056a3.394,3.394,0,0,0-.29-1.665c.085-.254.378-.411.29-.783-.606-1.8-.322-3.83-.1-5.776l-.58-.589c.579-.595.2-1.512-.191-1.959-.215-.325-.479-.807-.868-.783,0-.1.1-.194.191-.292,0-.1,0-.1.1-.2-.376-.279-.909.114-1.543,0-.815.087-1.148-.529-1.833-.2h-.193l-.1.1c-.349,0-.249-.614-.675-.587a1.019,1.019,0,0,1-1.158.194.992.992,0,0,0-.771.392c-.043-.746-.972.123-1.156-.2-.6-.65-1.12,0-1.833-.1-.568-.009-.794-1.049-1.448-.39a1.866,1.866,0,0,0-2.314,0h-.194l-.1.1c-.283-.057-.518-.4-.772-.491-.1-.1-.1-.1-.1-.2a1.229,1.229,0,0,1,.483-.488c-.005-.142.027-.264-.1-.393-.4-.961.01-.946.1-1.763.028-.283-.078-.913.1-1.076-.127-.426-.791-1.506-.289-1.666.551-.386-.175-.948.1-1.272.4-.31-.461-.91.1-1.274-.61-.163.326-1.243-.193-1.37.087-3.4-.677-5.146,3.376-4.6,0,.36.133.409.29.39,0-.1,0-.1.1-.1a1.2,1.2,0,0,1,1.543,0c.974-1.314,3.554-.285,4.822-1.078,1.337.943,2.946-.195,4.343-.294.233-.188-.066-.882.385-1.077h.578l.193-.194c.029-.353-.389-.662,0-.979v-2.254a.456.456,0,0,1,0-.587,1.773,1.773,0,0,1,.29-1.176C196.809,214.455,197.066,214,196.368,213.715Z" transform="translate(-168.115 -209.596)"/><path class="b" d="M259.659,230.549c-.32-.224.142-1-.1-1.183-.013-.494-.812-1.018-.1-1.379-.643-.147.475-1.326-.29-1.477-.353-.158.31-.772.387-.985-.136-.313-.884-1.216-.578-1.479.385-.1.385-.2.1-.492-.407-.58.1-1.574-.675-1.872-.863-.312.285-1.4,0-1.873-.732.027-.918-2.531-1.544-.985-.728.836.337-1.513-.578-1.281.425-.347.134-.839-.1-1.083-.157-.277-.3-.51-.579-.493-.139-.176-.4-.752-.675-.492-.356.413-.384-.3-.675-.494.251-1.452-.866,0-1.062-.689.343-.433-.6-.542-.578-.788-.154-.764-1.057-.49-1.351-.886.013-.217-.473-.948-.965-.887-.215,0-.486.074-.481-.3-.2-.254-.524.293-.675.1-.654-.518-1.52.086-1.736-.788-.416.491-.847-.4-1.158-.3-.411.573-.941-.523-1.543-.294-1.2-.233-3.312-.542-3.763.1-.29.295-.482.295-.772,0-.521-.223-4.546,1.275-4.438,1.477h-.483a7.669,7.669,0,0,1-1.35,1.084c-.049.261-.356.292-.289-.1-.532.019-.255.832-.579.887-.515-.141-.588.682-.771.787-.646,1.327-3.1,1.8-2.411,3.153-.34-.025-.62.5-.868.691-.1-.044-.521.37-.387.393.588.687-1.223.725-.674,1.578.374.622-.683.54-.484.984a.665.665,0,0,0-.578.887c-.584.388-.473,1.446-.675,2.07-.183.555-.653,1.4-.868,1.971-.739,1,1.145,1.153-.1,1.773.666.647-.75.488-.387,1.379.193.886-.685,1.195-.288,2.069.051.339-.671,1.012-.387,1.381.136.114.121.646,0,.887.646.684-.815.65-.29,1.477.484.689.58,1.282.1,1.773-.138.166.418.039.483.3-.392.031-.2,1.708-.386,1.773-.194.1-.194.294,0,.492.386.4-.277.49-.1.788.1.1,0,.3-.1.395.719.176-.179,1.036,0,1.28v.3c.282.127-.371,2.419.194,2.463.325.2-.544.9-.1,1.085l-.1,1.38a.349.349,0,0,1,.29.1c-.107,2.451.107,3.416-.29,5.123.639.169-.313.5,0,.788.556.19.349.6.387.986.118.455-.612,1.1.1,1.28-.1.1-.1.1-.1.2-.93.076.3,2-.387,2.169.426.032.028,1.846.677,2.167.1.1,0,.2-.1.3-.6.159-.094,1.007.1,1.381-.4,1.241.713,2.008.289,2.759a.244.244,0,0,0,.1.393c.872.371.2,2.2,1.351,2.661,1.079.4.209,1.835,1.35,2.561.374.625.871,1.526,1.446,1.675.676.1.773.4.29.79-.76.683.738.37.771.591-.081.447,1.6.767,1.255,1.379h.475c-.038.323.149.493.587.493.442.195.251.221.1.591a.377.377,0,0,0,.578,0c0-.1,0-.1.1-.1.1.1.288.1.578.1,0-.1,0-.1.1-.1.169-.819,1.363.264.1.2-.065.286-1.037.363,0,.251.167.271,2.145.69,2.121,1.183.29-.1.58.1.965.591.9.288,2.06.742,2.991.3a.641.641,0,0,1,.964.1c.358.26.573.875,1.159.492h2.7c.39-.129.987-.8.963.1,1.577-.157,2.094-.391,2.7.1,1.189-.264,2.728-1.14,3.763-.986.068-.424,1.593-1.178,1.737-1.477.516.261.434-.814.964-.691.472-.041.541-.117.194-.545.642-.464,1.079-1.522,1.736-2.168.011.157-.071.452.193.395l.1-.1c-.121-.142-.042-.46-.29-.4-.1-.393.1-.59.481-.59v-.2c-.117-.254.6-.1.483-.59-.337-.767,1.232-2.206.579-2.858-.718-.621,1.122-.759.386-1.183,1.111-.948-.985-1.54,0-2.759a15.677,15.677,0,0,1,.1-2.858c-.024-.3.121-.631-.29-.788.1-.1.1-.1.1-.2.847.05-.019-.653.384-1.282-.4-.527.178-1.608-.191-1.773a.522.522,0,0,0-.1-.788l.192-.2a.351.351,0,0,0,.29-.1c-.5-.637.1-1.318-.675-1.971-.215.028-.6-.079-.771.1-.335.306-1.14-.634-1.448,0-1.37-1.571-2.962-.285-4.438-1.084-.829-.06-.961-.918-1.157.2-.187.085-1.514-.921-1.833-.2-.509.595-.264-.932-.675-.2-.73.94-.365,1.641-.29,2.561.215.533-.6.451-.1.985.477.658.018,2.123-.1,2.265.814.454-.294.978.1,1.381a.185.185,0,0,1,0,.294,8.158,8.158,0,0,1-1.061,3.055c-.021.216-.365.572-.385.788-.386.774-2.059.668-2.7,1.085-.7-.524-.526.154-.868.393l-.1-.294h-.386c-.161-.2-.538.04-.482-.3-1.2.364-.906.936-1.929,0-.979.735-1.325-.816-1.737-.1,0,.2-.1.2-.193.1-.987-.695-1.3-1.743-1.929-2.857-.581-.279-.505-1.214-.288-1.774.273-.8-.6-.514-.387-1.084.133-.129-.356-.948-.1-1.082.088-.221-.773-1.183-.481-1.381,0-.218-.424-.853-.193-1.181a.847.847,0,0,1,.1-.888,3.822,3.822,0,0,1-.386-3.251v-.2c.563-.268.075-.912.193-1.181.1-.1,0-.2-.193-.3-.091-.09-.516-.5-.289-.494.6-.1.512-.294.192-.591-.191-.184.685-.686.193-.887-.544-.42.8-1.356-.1-1.773-.255-.7.945-.356.386-.788-.144-.152-.434-.4-.29-.492.38-.911-1.189-1.408.194-1.578.465.07.314-.377,0-.689-.221-.128.477-.91.29-.985,0-.1-1.09-1.348-.387-1.675.51-.2-.2-.323-.193-.591.111-.217.815-.252.58-.395-.771-1.167.326-1.173,0-2.463-.043-.39.161-.834-.289-1.084.866-.156.486-.423.289-.887a2.341,2.341,0,0,1,.482-1.576c.225,0-.158-.571-.193-.689-.067-.246.676-.512.386-.79-.2-1.76.4-2.663,0-3.842.178-.185.681-.468.675-.691l-.385-.393c.692.016.683-.443.868-.887a7.729,7.729,0,0,0,1.254-3.055.354.354,0,0,1,.386-.393c.739-.086.466-.862.771-1.183,1.011-.22,1.977-.9,2.99-.591.109.081.559.413.58.2.439-.327.755.368,1.253.4.9.2,1.363,1.129,2.026,1.773-.306.881,1.745,2.875,1.352,3.745,1.094,1.97.295,5.45,1.639,7.586v.1a1.055,1.055,0,0,0,.385.3c0,.1,0,.1.1.1l.193.2c.1-.276.487-.572.675-.788.752.586.505,1.088,1.448,0,.076-.094.714.721.868.689.349.466,1.562-.416,1.928.1.216.326,1.09-.167,1.448-.3.576-.248,1.5.1,2.411-.3,1.046-.326.945-1.913.965-2.856C259.7,231.611,260.009,230.943,259.659,230.549Z" transform="translate(-190.485 -209.292)"/><path class="b" d="M326.03,254.037c-.082-.561.579-.8.58-1.446a13.346,13.346,0,0,1-.58-2.6c-.114-.109-.094-.381-.1-.578.054-1.35-.932-2.478.29-3.956l-.1-.1c-.3,0-.8.018-.868-.1-.051-.287.291-.584.483-.772.065-.207-.3-.471-.483-.674.07-.275.71-.369.193-.772-.1,0-.1,0-.1-.1.682-.291.5-.971.1-1.446.029-.188.268-.353.194-.58-.758-.446.145-.948.192-1.446-.6-.8-.173-1.434,0-2.123-.464-2-.614-5.2-1.35-7.233.717-.82.333-1.972.29-2.9l-.676-1.158c.026-.11-.112-.2-.192-.288v-.29c1.082-.317-.673-1.725-.483-2.219.087-.416.7-.7.1-1.06.082-.35-.727-1.061-.674-1.448a1.182,1.182,0,0,0-.675-1.253c-1.746-.526-1.873-3.274-2.894-4.246-.334-1.228-2.006-1.033-1.93-2.508,0-.1-.1-.1-.385-.1-.648.547-1.039-.773-1.448-.772.112-.813-.918-.286-1.349-.772-1-.062-1.822-1.119-2.6-.578-.1-.674-.29-1.061-.484-1.158-.109.136-.108.766-.385.675a12.513,12.513,0,0,0-3.088-.965c-.426-.057-.416.141-.675.194-.445-.226-1.046-.6-1.543-.193-.715.466-1.532-.349-2.219.193l-.1-.1c-.1-.634-1.614.453-2.025.868-.258.63-.98.621-1.545.58a2.438,2.438,0,0,1-1.64,1.639c-.233.407-1.009.629-1.349.869-.534.359-.01,1.5-1.061,1.446a5.721,5.721,0,0,1-.772.387v.1c-.637-.059-.389.823-.579,1.06-.627.28-.845,1.273-.772,2.123-.293.585-1.244,1.235-1.543,1.929.855.015,0,.626-.1.965v.1a1.044,1.044,0,0,1-.1,1.06c.849.544.039,1.012-.1,1.545-.06.236.411.884.58,1.253-.232.183-1.071-.058-.868.579.4.255.213,1.542.482,1.737-.631.477.523,1.434-.385,1.736.785-.038.111.992.1,1.253.469.49.168.849.1,1.448-.1.439.4.41.387.771.031.259-.72,1.422-.675,1.446.042.647-.182,1.87.385,2.315-.439.618.64,1.445-.288,1.738.859.344-.362.937,0,1.156.294.19.174.619,0,.868a.751.751,0,0,1-.1,1.255c1.02.27-.017.882.1,1.543a1.237,1.237,0,0,1,.385.965.357.357,0,0,1,.1.29l-.1.1c0,.112,0,.74,0,.868-.147.405-.5.878-.1,1.253a14.814,14.814,0,0,0,.387,2.411c-.019.406-.027.77.289.964v.1c-.231.152-.741.275-.773.58.722.119.457.325.193.771.371.509.536.9-.1,1.35l.1.1c0,.193.1.29.289.386,0,.139.027.259-.1.385.057,1.016,1.091,1.751.193,2.6.564,1.19.61,3.208.772,4.728.041.247-.2.511-.387.675-.022.158.057.258.193.387,0,.1,0,.1.194.191,0,.1.1.1.193.1.3.331-.1.828-.387,1.061a8.641,8.641,0,0,1,.675,2.22c.191.2-.032,1.039.387,1.156.506.327.68.609.193.868a1.08,1.08,0,0,1,.675,1.158c.1.1.1.193.193.29v.192c.174,1.082.979,1.717,1.254,2.509.068.966,1.269,1.681,1.929,2.218.352.293.559,1.275,1.255,1.061.125-.12.445-.164.482,0,.19.276.06,1.063.1,1.446l-.1.1c0,.1.1.1.193.1.17.135.809.206.771-.193.1-.1.194-.288.29-.385.032.669,1.223.589,1.157,1.35l.193.193c0-.193.1-.29.386-.29l.1.1h.385c.21.222.47.054.578-.193h.483a2.292,2.292,0,0,0,1.446.386l.1-.1a2.069,2.069,0,0,1,1.543.481c.8.087,2.921.357,3.281-.385l.288.194c.1.288.1.481.193.578v-.1l.484-.29h.1l.1-.1c.249-.031.624.5.773.482.282-.713,2.93-1.158,3.183-1.93l.578.1c.9.554.863-.955,1.544-.965.09-.451,1.043-.75,1.543-.868a9.931,9.931,0,0,1,2.025-2.7.983.983,0,0,0,.58-.965c.7-.094.252-1.213.868-1.349a1.56,1.56,0,0,0,1.158-1.446c.276-.414.874-1.067.771-1.545-.064-.379,1.005-1.314,0-1.543.456-.364,1.143-.184,1.06-.965-.468-.375-.777-.521-.385-1.061.8-1-.744-2.249,1.061-2.411C326,258.568,327.292,256.01,326.03,254.037Zm-9.84-1.446a1.1,1.1,0,0,0-.288.771h.1c.121.587-.254.875-.291,1.352.007.259.034.622-.193.771l.1.385c.713.622-.631.291-.578.773s.867.815-.1.868c-.13.109-.091.159-.1.289,1.306-.172-.489,2.315-.579,3.279v.579h.1c0,.1-.1.194-.191.29,0,.1,0,.1-.1.1-.1.1-.193.1-.193.194-.193,0-.29,0-.387.193-1.854.885-3.233,2.612-5.209,1.158-.008-.234-.288-.017-.385.1-.614.408-.146-.516-.772-.58-.357-.123-.4-.074-.386-.289.113-.254-.819-.483-.772-.676a2.969,2.969,0,0,0-1.158-1.64c.048-.659-1.169-2.372-.964-3.28.1,0,.1-.1.1-.193l.1-.1c.017-.207-.054-.482-.29-.481-.283-.277-.3-.311-.288-.58.418-.338-.712-.667-.1-1.06v-.1a.83.83,0,0,1-.29-.772l.1-.1a2.416,2.416,0,0,0-.482-1.062,2.109,2.109,0,0,1,.192-2.123c.129-.4-.307-.482-.385-.772-.092-.327.42-.582.1-.771-.356-.252-.087-.414,0-.675.012-.173-.314-.062-.29-.29l.193-.193c.411-.094-.637-.746-.193-.868-.147-.712.273-1.047.387-1.737.123-.472-.635-.773-.291-1.156.243-.3-.069-.827.29-1.061.032-.882.029-2.454-.386-2.8.173-.273.593.137.675-.386-.6-.866-.382-1.424-.1-2.411.227-.761-.87-1.9,0-2.605.019-.21-.046-.4-.288-.384l-.194-.194h.1c.3-1,.255-1.837.578-2.894.24-.309.015-.6-.1-.868.1-.586.729-.759.29-1.446-.083-.333.479-.74.676-1.158-.01-.18-.352-.36-.289-.578a5.906,5.906,0,0,0,1.543-2.22c.969-.912,3.58-.4,4.631-.193a4.609,4.609,0,0,1,1.64.483c.608.041.207,1.067.675,1.062.352.243,1.291.352.578.868,1.135.844.637,3.022,1.351,3.761-.1.254-.564.818-.1.965.439.328.139.947.579,1.158a2.5,2.5,0,0,1-.579.481c1.068-.081.41,1.162.868,1.642.3.335.038,1.223.579,1.639.5.353-.127.67-.385.965v.1c-.322.252.3.584.191.771.645.792-.063.91-.1,1.736.173.779.616,1.227.482,1.93a2.394,2.394,0,0,0,.1,2.121c.06.253-.349.422-.29.674h.1c.2.177.277.368.1.58v.1l-.1.1c-.058.17.353.227.387.386,0,.194-.386.386-.387.579.63.432-.026,1.043,0,1.544.465.456.541.893.1,1.35a1.294,1.294,0,0,1,.193,1.351C315.732,251.832,316.271,252,316.19,252.591Z" transform="translate(-217.596 -208.903)"/></g><g transform="translate(111.499 39.683)"><path class="c" d="M460.044,213.715c-.254-.232-.273-.408.1-.589-.477.051-.455-.469-.288-.685-.524-.21-1.2-.036-1.158-.881-.178.458-.368.386-.675.39-1.268-.487-2.01.046-2.508-.978-.154.155-.747.47-.868.194a1.121,1.121,0,0,0-1.061.393c-.1.383-.59-.367-.868-.295-.436-.021-.622.575-.965.1,0-.1.1-.2.193-.294-.16-.158-.308-.3-.483-.1-.171.27-1.486.086-1.543.489-.188.194-.318.117-.29-.2.142-.824-.446-.813-.674-.2.018.251.031.468-.29.393-.111-.132-.159-.093-.289-.1-.474.775-.786.155-1.351,0-.313.418.194.818-.675.587a3.006,3.006,0,0,0-2.508-.1c-.832-.329-3.561-.262-4.245-.589-.374.66-.923-.032-1.448.1a3.2,3.2,0,0,1-2.025.1c-.1-.295-.194-.489-.387-.489-.262-.051-.781.529-1.158.587-3.422,0-2.771,2.97-2.6,5.582.434.676-.488,2.236.29,2.546,0,.1,0,.1.1.1.1.1.194.2.194.292a3.3,3.3,0,0,1-.677.393c-.2.263.01.6.1.881.208.383.055.3,0,.488.563.382-.4.66,0,1.077.275.812-.316,4.354.193,5.288-.432,1.055,0,3.277.1,4.5a.791.791,0,0,1-.1.491c.147.233.051.6.482.685-1.405,1.088.063,2.649-.385,3.427a.594.594,0,0,0,.193.589c.55.195-.316.783.1,1.174-.5.627-.195,1.326.1,1.959-.56.8.395,2.334,0,2.841v1.468c.291.007.39.219.193.393v.1c-.139.105-.143.365,0,.39.433.45.046.863-.288,1.372h.1c1,1.142.3,1.126,0,2.349-.019.549.145,1.119.1,1.665.977.972-.042,4.91.868,6.463l-.1.2c-.661-.017-.556.528-.193.881a11.356,11.356,0,0,0,.1,2.447,1.207,1.207,0,0,0,.1.685c.043.083.212.411,0,.392-.207.16.091,1.882-.483,1.959l.1.194c.656.491.066,1.282.1,1.959.726,1.133-.026,1.275-.29,2.546.223.857.9,2.362-.193,2.84-.1.282.67.689.29.783-.062.135-.178.263,0,.392a2.624,2.624,0,0,1-.29,1.419c.32.482-.184.679-.1,1.274-.029.63,1.14,1.482,1.351,1.861.228-.037,1.05-.593,1.255-.294.368.418.442-.407.578-.49.428,1.043,1.476.539,2.218.784,1.855-.065,3.319.489,5.114-.343h.385c.21.262.9.188,1.255.2l.1-.1a.808.808,0,0,1,.578.2c1.358-.645,3-.044,4.535.1a1.656,1.656,0,0,1,1.929.587l.1-.1c-.013-.19.436-.3.578-.1h.194a.786.786,0,0,0,.288-.587h.29c-.068.306.5.684.868.393.276-.322.588-.276.578.292.1,0,.1,0,.193.1l.1-.1c-.039-.72,1.734-.434,2.218-.489,1.339.068,1.888-1.408,1.448-2.742.185-.334.015-.671.385-.979a1.422,1.422,0,0,1,.194-1.959,10.514,10.514,0,0,1-.1-2.84c.036-.09-.414-.279-.482-.292-.332-.2-.72-.475-.674-.881-.969.066-1.433-.546-2.22.1-.4-.071-1.249-.676-1.736-.295-.1,0-.1,0-.193.1h-.288a.862.862,0,0,0-.868,0c-.022-.539-.36-.484-.677-.1a3.947,3.947,0,0,0-2.218,0c-.563-.261-.832-.213-1.351.294-.365-.169-1.048-.662-1.446-.2a1.081,1.081,0,0,0-1.35,0c-.213-.429-.663-.158-.773-.393.79-.367.487-1.846.87-2.448.314-.535-.4-1.705-.29-2.447a.364.364,0,0,0,.1-.295l-.1-.1c.03-.127-.083-.576.1-.587.605-.68-.461-1.722.288-2.352a3.32,3.32,0,0,1-.385-2.153,5.016,5.016,0,0,1,.29-2.45c-.435-.288-.142-1.2-.58-1.37v-.294c.466-.328-.059-.59-.193-.979.007-.216.442-.276.58-.391.289-.208.555-.246.771.1.456-.385,1.094.514,1.446-.2a2.232,2.232,0,0,1,.772-.1c.264.395.749-.336,1.061-.294.487-.049.746.444,1.158,0,.394.364.639.419,1.061,0,.367-.08.584.174.869.2.213.013.45-.341.674-.292.577.6,2.9.344,3.858.39.9.475,2.9-1.953,2.606-2.056a3.386,3.386,0,0,0-.291-1.665c.086-.254.379-.411.291-.783-.607-1.8-.322-3.83-.1-5.776l-.58-.589c.579-.595.2-1.512-.192-1.959-.214-.325-.478-.807-.868-.783,0-.1.1-.194.192-.292,0-.1,0-.1.1-.2-.376-.279-.909.114-1.543,0-.816.087-1.148-.529-1.833-.2h-.193l-.1.1c-.349,0-.249-.614-.675-.587a1.019,1.019,0,0,1-1.158.194.992.992,0,0,0-.771.392c-.043-.746-.972.123-1.157-.2-.6-.65-1.12,0-1.833-.1-.568-.009-.795-1.049-1.448-.39a1.867,1.867,0,0,0-2.315,0h-.193l-.1.1c-.283-.057-.518-.4-.771-.491-.1-.1-.1-.1-.1-.2a1.231,1.231,0,0,1,.484-.488c-.005-.142.027-.264-.1-.393-.4-.961.01-.946.1-1.763.027-.283-.078-.913.1-1.076-.127-.426-.792-1.506-.29-1.666.551-.386-.174-.948.1-1.272.4-.31-.462-.91.1-1.274-.611-.163.325-1.243-.194-1.37.087-3.4-.677-5.146,3.376-4.6,0,.36.133.409.29.39,0-.1,0-.1.1-.1a1.2,1.2,0,0,1,1.543,0c.974-1.314,3.555-.285,4.823-1.078,1.336.943,2.946-.195,4.343-.294.233-.188-.066-.882.385-1.077h.578l.194-.194c.029-.353-.389-.662,0-.979v-2.254a.454.454,0,0,1,0-.587,1.77,1.77,0,0,1,.29-1.176C460.484,214.455,460.742,214,460.044,213.715Z" transform="translate(-390.525 -209.311)"/><path class="c" d="M398.681,230.549c-.32-.224.142-1-.1-1.183-.013-.494-.812-1.018-.1-1.379-.644-.147.474-1.326-.29-1.477-.353-.158.31-.772.386-.985-.136-.313-.884-1.216-.578-1.479.385-.1.385-.2.1-.492-.407-.58.1-1.574-.675-1.872-.862-.312.285-1.4,0-1.873-.732.027-.918-2.531-1.544-.985-.728.836.337-1.513-.578-1.281.425-.347.134-.839-.1-1.083-.157-.277-.3-.51-.58-.493-.139-.176-.4-.752-.675-.492-.356.413-.384-.3-.675-.494.251-1.452-.866,0-1.062-.689.343-.433-.6-.542-.578-.788-.154-.764-1.056-.49-1.351-.886.013-.217-.473-.948-.964-.887-.215,0-.486.074-.482-.3-.2-.254-.524.293-.675.1-.653-.518-1.521.086-1.736-.788-.416.491-.847-.4-1.158-.3-.411.573-.94-.523-1.543-.294-1.2-.233-3.312-.542-3.763.1-.29.295-.482.295-.771,0-.521-.223-4.547,1.275-4.438,1.477h-.483a7.686,7.686,0,0,1-1.349,1.084c-.049.261-.356.292-.29-.1-.532.019-.255.832-.578.887-.516-.141-.589.682-.772.787-.646,1.327-3.1,1.8-2.411,3.153-.34-.025-.619.5-.868.691-.1-.044-.521.37-.386.393.588.687-1.223.725-.675,1.578.374.622-.683.54-.484.984a.666.666,0,0,0-.578.887c-.584.388-.473,1.446-.675,2.07-.183.555-.653,1.4-.868,1.971-.739,1,1.145,1.153-.1,1.773.666.647-.75.488-.387,1.379.193.886-.685,1.195-.288,2.069.051.339-.671,1.012-.387,1.381.136.114.121.646,0,.887.647.684-.814.65-.289,1.477.483.689.579,1.282.1,1.773-.138.166.418.039.483.3-.392.031-.2,1.708-.386,1.773-.193.1-.193.294,0,.492.386.4-.277.49-.1.788.1.1,0,.3-.1.395.718.176-.179,1.036,0,1.28v.3c.282.127-.371,2.419.193,2.463.326.2-.544.9-.1,1.085l-.1,1.38a.348.348,0,0,1,.289.1c-.107,2.451.107,3.416-.289,5.123.639.169-.313.5,0,.788.556.19.349.6.387.986.118.455-.612,1.1.1,1.28-.1.1-.1.1-.1.2-.93.076.3,2-.386,2.169.425.032.028,1.846.676,2.167.1.1,0,.2-.1.3-.6.159-.094,1.007.1,1.381-.4,1.241.713,2.008.289,2.759a.245.245,0,0,0,.1.393c.873.371.2,2.2,1.351,2.661,1.079.4.209,1.835,1.35,2.561.374.625.871,1.526,1.446,1.675.677.1.773.4.29.79-.76.683.738.37.771.591-.081.447,1.6.767,1.255,1.379h.475c-.038.323.149.493.587.493.442.195.251.221.1.591a.377.377,0,0,0,.578,0c0-.1,0-.1.1-.1.1.1.288.1.578.1,0-.1,0-.1.1-.1.168-.819,1.363.264.1.2-.065.286-1.037.363,0,.251.167.271,2.145.69,2.121,1.183.29-.1.58.1.965.591.9.288,2.06.742,2.991.3a.642.642,0,0,1,.965.1c.358.26.573.875,1.158.492h2.7c.39-.129.986-.8.963.1,1.577-.157,2.093-.391,2.7.1,1.189-.264,2.728-1.14,3.763-.986.067-.424,1.593-1.178,1.736-1.477.516.261.434-.814.965-.691.471-.041.541-.117.193-.545.642-.464,1.079-1.522,1.736-2.168.011.157-.071.452.193.395l.1-.1c-.121-.142-.042-.46-.29-.4-.1-.393.1-.59.482-.59v-.2c-.118-.254.6-.1.483-.59-.338-.767,1.232-2.206.578-2.858-.718-.621,1.122-.759.386-1.183,1.111-.948-.985-1.54,0-2.759a15.674,15.674,0,0,1,.1-2.858c-.024-.3.121-.631-.29-.788.1-.1.1-.1.1-.2.847.05-.019-.653.385-1.282-.4-.527.177-1.608-.192-1.773a.521.521,0,0,0-.1-.788l.192-.2a.351.351,0,0,0,.29-.1c-.5-.637.1-1.318-.675-1.971-.215.028-.6-.079-.771.1-.335.306-1.14-.634-1.448,0-1.37-1.571-2.961-.285-4.438-1.084-.829-.06-.961-.918-1.157.2-.186.085-1.514-.921-1.833-.2-.509.595-.263-.932-.675-.2-.73.94-.365,1.641-.29,2.561.215.533-.6.451-.1.985.477.658.018,2.123-.1,2.265.814.454-.294.978.1,1.381a.185.185,0,0,1,0,.294,8.159,8.159,0,0,1-1.061,3.055c-.021.216-.364.572-.385.788-.386.774-2.058.668-2.7,1.085-.7-.524-.526.154-.868.393l-.1-.294h-.386c-.161-.2-.538.04-.482-.3-1.2.364-.906.936-1.929,0-.979.735-1.325-.816-1.736-.1,0,.2-.1.2-.194.1-.987-.695-1.3-1.743-1.929-2.857-.581-.279-.505-1.214-.288-1.774.273-.8-.6-.514-.387-1.084.133-.129-.356-.948-.1-1.082.088-.221-.774-1.183-.482-1.381,0-.218-.424-.853-.193-1.181a.849.849,0,0,1,.1-.888,3.824,3.824,0,0,1-.386-3.251v-.2c.563-.268.075-.912.193-1.181.1-.1,0-.2-.193-.3-.091-.09-.516-.5-.288-.494.6-.1.512-.294.191-.591-.191-.184.685-.686.193-.887-.543-.42.8-1.356-.1-1.773-.255-.7.945-.356.387-.788-.145-.152-.435-.4-.291-.492.38-.911-1.189-1.408.194-1.578.465.07.315-.377,0-.689-.221-.128.477-.91.29-.985,0-.1-1.09-1.348-.387-1.675.511-.2-.2-.323-.193-.591.111-.217.815-.252.58-.395-.771-1.167.326-1.173,0-2.463-.043-.39.161-.834-.289-1.084.866-.156.486-.423.29-.887a2.341,2.341,0,0,1,.481-1.576c.225,0-.158-.571-.193-.689-.067-.246.676-.512.386-.79-.2-1.76.4-2.663,0-3.842.178-.185.681-.468.675-.691l-.385-.393c.692.016.683-.443.868-.887a7.728,7.728,0,0,0,1.254-3.055.354.354,0,0,1,.386-.393c.739-.086.466-.862.771-1.183,1.012-.22,1.977-.9,2.99-.591.108.081.558.413.579.2.439-.327.755.368,1.253.4.9.2,1.363,1.129,2.026,1.773-.306.881,1.745,2.875,1.352,3.745,1.094,1.97.295,5.45,1.639,7.586v.1a1.06,1.06,0,0,0,.385.3c0,.1,0,.1.1.1l.193.2c.1-.276.487-.572.675-.788.752.586.505,1.088,1.448,0,.076-.094.714.721.868.689.349.466,1.562-.416,1.928.1.215.326,1.089-.167,1.448-.3.576-.248,1.5.1,2.411-.3,1.046-.326.945-1.913.965-2.856C398.727,231.611,399.031,230.943,398.681,230.549Z" transform="translate(-362.774 -209.008)"/><path class="c" d="M520.63,262.907a3.3,3.3,0,0,1-.486-1.728c.18-.372.751-.792,0-1.057,1.085-1.493-.186-3.88-.386-5.7-.167-.176-.175-.934.2-.856.1-.1.1-.1.1-.2-.528-.309-.237-.706-.688-1.158-.011-.194-.013-.381.285-.386v-.184c-.628.01-1.024-1.572-1.342-1.846h-.671c-.1-.071-.19-.211-.3-.184l.2-.2c.543.145.492-.5.872-.771-.941-.124-1.187-.462-1.745-1.342-.523-.7-.876-1.45-1.828-1.828a8.207,8.207,0,0,0-2.516-2.314c-.407-.218-.26-.641-.285-.973-.307-.5-.967-.2-1.158-.872a18.665,18.665,0,0,0-2.5-1.828c-.357-1.249-1.949-1.095-2.13-2.8l.1-.1c-1.519-.295-2.877-2.1-3.959-3.271l-.1-.1.1-.185c1.054-.09-.356-1.418-.771-1.543v-.1l.184-.1c.069-.247-.23-.312-.469-.285l-.1-.1c.972-1.651-1.512-3.7-1.056-5.687-.8-.377-.026-1.455-.2-2.214-.1-.889-.406-1.265.3-1.929.307-.127-.166-.566-.3-.688.416-.549.188-1.418.772-.872,0,.1,0,.1.1.1.954-.83,1.977-.09,2.9-.57.07.236,1.888.1,1.727.956a3.321,3.321,0,0,0,.822,1.46c-.241,0-.468-.028-.621.285h.285c.22.3.816-.105.487-.2h.084c.335,1.45.5,1.72.3,2.617.038.375-.194,1.241.47,1.158.045.22.768.7.386,1.056-.249,1.974,1.742,2.345,3.674,3.086.363-.457.79.057,1.158-.2.478-.351.877.407,1.258-.084a2.68,2.68,0,0,0,1.728-.1c1.311-.132,1.056,1.192,2.13-.2.838.333,1.181.576,1.544-.57.1,0,.1,0,.1-.1-.2,0-.3,0-.3-.1l-.1-.084c0-.084.084-.185.3-.185v.084c.255.008.3-.018.285-.2a.271.271,0,0,0-.168-.068c.084-.553.185-.788.268-.788.079-.216-.2-.3-.2-.487l.386-.386c.066-.326-.1-.7-.47-.671a.419.419,0,0,1,.084-.3v-.285a.9.9,0,0,1,.285-1.158c-1.676-.169.613-2.564-1.057-2.416,0-.084,0-.084-.084-.084,1.033-.618-.074-1.759.185-2.7a5.467,5.467,0,0,0-.872-1.074v-.386l.1-.1c.023-.3-.3-.259-.487-.386-.3-.073-.155-.558-.185-.771l.084-.084c0-.3-.185-.386-.47-.386a2.724,2.724,0,0,1-1.158-1.358c.1-.587-1.169-.773-1.073-.956.091-.559-1.013-.645-1.443-.772-.5-.948-3.947-.961-3.271-1.929-.137-.169-1.049-.08-1.358-.1,0-.16-.276-.091-.386-.285-.1,0-.184,0-.184-.1l-.487-.285c-.1,0-.1,0-.285-.1,0-.1-.1-.1-.2-.1-.25-.12-2.9-.424-3.657-.571-.606-.075-.788.526-1.259.185-.717-.613-1.018.113-1.644-.184-.289-.429-.6.033-.956.084-1.5.372-3.162,1.2-4.546,1.644.13.279.825.627,0,.772l-.185-.185c-1.751.688-1.916.759-2.314,1.929-1.194-1.192-2.327,1.384-2.7,1.627.061.93-.109.669-.688.3-.167.541-.045,1.387-.855,1.728.372.323-.009.666-.1.973-.312.248-.465.726-.872.872-.648.818.092,1.069.1,1.929-.148.687-.229,2.607-1.359,2.214l-.084.1.084.084c0,.236.051.515-.184.688.561.221.132.526-.1.772.613.524.634.661,0,1.057.289.2,1.244.087.772.772-.182.132-.286.482-.1.57l.587.973c-.59,2.143,2.023,3.235,2.03,4.814,1.018-.126,1.016.428,0,.3.918,1.422,1.739,1.782,1.728,3.372,0,.1.2.185.671.285-.265,2.159.892.023.872,1.358.239.624,1.186-.731,1.158.386-.887.006-.321.525.1.671.521-.023.744.423.386.771,0,.1,0,.1.1.1a14.354,14.354,0,0,1,3.271,3.271c1.343,0,1.283.722,1.644,1.543.765.642,2.05,2.045,2.986,2.8.1.2.386.386,1.073.671.549,0,.8,1.7,1.543,1.929.174.184.065.326-.1.487,1.116-.133.5.952.956,1.359a.84.84,0,0,1,.3-.2c.011-.259.3-.005.386.1-1.311.936,1.672,2.621.856,3.959-.1.193-.148.313.2.285l-.285.285c.337.113,1.119.628.386.772,0,.1.084.1.185.2-.2.514-.007,2.574-.671,2.986a.97.97,0,0,1,.486,1.057c-.041.21-.349.682-.1.872-1.5.248-1.1,1.067-2.415,2.416-.63.467-1.77,2.368-2.7,1.727-.662-.167-.984-.387-1.258.2a.83.83,0,0,0-.671-.285l-.1.084h-.57a3.976,3.976,0,0,1-2.315-1.241c-.178-.832-1.008-.554-1.46-.771-.726-1.3-.052-2.52-.671-3.489.074-.26.2-.755,0-.956.091-.182.356-.659.285-.872l.1-.1c0-.538-1.055-1.524-.671-1.828.809-.133-.276-.839.1-1.158h.185v-.1c-1.175-.224-2.006.143-2.029-1.056-.859-.535-2.914.868-3.943,0-.16.267-1.213.142-1.358.285-.232-.835-1.717.294-2.03-.084-.783-.145-.493.777-1.057,1.057.017.7-.048.847.2,1.057.015.3-.683.179-.872.2-.266.136.648,1.134.185,1.544.03.366-.422.735,0,1.056-.743.437.5,1.857.2,2.8-.156.1-.186,2.813.184,2.986.072.555-.523.707-.47,1.258-.063.377.832.7.285,1.158-.377.384.5.428.386.872.249.7.16,1.923,1.056,2.114a6.53,6.53,0,0,0,1.644,2.315c-.262.45.351.973.872.973.565.032.86.994,1.543.771,0,.084-.1.185-.3.386-.043.319.084.539.386.47.491.077,1.125.7,1.543.688.2-.8,1.245.071,1.358.57.219.295.749-.17.671.386.47.588,1.4.484,2.029.872a6.049,6.049,0,0,1,1.929.285c.337-.525,1.077.248,1.358.2a24.066,24.066,0,0,1,3.372-.1c.518-.091,1.5-.428,1.929,0,1.191-.45,2.555-.4,3.757-1.057.8-.24,1.135-1.269,2.03-.872h.386c.1-.386.57-.587,1.258-.671a5.645,5.645,0,0,0,1.241-1.074c.1,0,.1,0,.1-.084a4.659,4.659,0,0,0,.587-.386c.108-.2,1.024.058.956-.386.212-.736,1.957-1.809,2.516-2.03v-.1c.084-.1.084-.1.084-.185l-.084-.1c-.112-.535.188-.545.57-.772a19.049,19.049,0,0,1,1.644-2.6c-.206-.941.918-.522.671-1.46-.227-.433.693-2.309.486-2.114.535-.56.728-.893.487-1.543A.368.368,0,0,0,520.63,262.907Z" transform="translate(-411.446 -208.428)"/><path class="c" d="M580.718,226c.2-.013.554.047.688-.084-.365-.969,1.578-1.5.57-2.442-1.219-1,.786-1.623.1-2.543-.1,0-.1,0-.2-.085-.175.108.016.924-.47.475-.176-.6.886-1.466-.3-1.458,1.249-1.409.5-2.839-.386-4.188.316-.206.13-.462,0-.7.337-.533.5-.668.3-.966.05-.561-1.027-.789-1.074-1.17.135-.336.636-1.044-.084-1.068-.7.454-1.172.726-1.543-.2-1.653-.6-3.724.278-5.787.2-.856,1.1-2-1.533-2.315.39h-1.358l-.1.085c-.4.04-.5-.46-.771-.78H567.9c-.01.967-1.5.605-1.745.78a25.741,25.741,0,0,1-3.572.7c-1.258.173-2.852-1.413-3.086,0-.229-1.017-6.843-1.29-6.844-.2-.3.25-.423-.071-.386-.39-.039-.41-.827-.018-.772.1,0,.288,0,.39-.1.39s-.185-.1-.185-.39c.079-.393-.862-.389-.771,0-.023.227.124.876-.3.78a4.791,4.791,0,0,0-.285-.678c-.817.567-1.969-.649-2.315.576a.725.725,0,0,0,.1.882c1.358.138-.356.385-.486.576,1.349.323,1.024,1.643.973,2.934a3.043,3.043,0,0,1-.386,2.441h.084c1.079,1.1.763,1.082.386,2.441.584.106.654,1.33.772,1.848.529.027,1.064,1.084,1.158,1.169,1.584.12,2.078,1,3.388,1.272.536-.027.033-.917.671-.7.355.548,1.143-.507,1.543.306.467-.59,1.32.48,1.644-.306.232-.079.514.371.671.492-.573.123-1.569.616-.587.984.3,0,.386.084.386.186-.267,1.283.144,2.72-.286,4-.062.284.173.384.2.576.057.381-.3.547-.3.882a1.192,1.192,0,0,1,.3.882l-.1.1c-.217.73.513.831.57,1.356-1.022,1.907.034,3.681.3,5.171a4.207,4.207,0,0,0,0,3.9c.082.23-.3.374-.3.576-.024.157.322.331.3.491-.093.367-.4.7-.486.984.047.172-.14.321-.2.491.248.117.433.466.2.678.367,4.23-.419,8.618-.286,12.97-.175.99.585,2.1.085,2.916-.448.468.371,1.013.385,1.56a5.952,5.952,0,0,1-.084,1.458v-.084c-.409-.009-.4.389,0,.39v.78c-.32-.056-.52.857-.2,1.17.1,0,.1,0,.1.1.152-.026.087.1.1.187a1.692,1.692,0,0,0,.285,1.95c-.319.4.128.646.1,1.068-.014.37-.669.655-.587.984.108.415.684.532.587,1.356.08.384-.194,3.084.185,3.222.636-.137.859,1.344,1.358.881.152.014.265-.054.386.1.084,0,.084,0,.084.084.1,0,.2-.084.2-.39a2.451,2.451,0,0,0,.285-.288h.1c.714.5,3.753.422,4.344.288.847.319,1.422-.9,2.114-.475.1,0,.3.085.487.085.4.459,2.744-.188,2.6-.865.646-1.984,1.016-5.154.587-6.443.263-1.413.447-3.891-.385-5.069-.086-.552.559-.9.1-1.272-.291-.025-.255-.5-.1-.678.549-2.874.666-3.355.285-4.493.711-1.341-.285-3.067.285-4.578-.652-1.967-1.618-3.6-.47-5.748l.084-.1c0-.1-.084-.187-.084-.39-.2-.1-.2-.186-.2-.288-.454-.546.583-1.1.2-1.661-.811-1.672-.4-2.525-.772-3.9a3.185,3.185,0,0,1,.184-1.272c.856-.873-.049-2.688-.1-3.8a8.476,8.476,0,0,0-.671-4.289,1.03,1.03,0,0,0,.386-1.068.329.329,0,0,1,0-.492,3.765,3.765,0,0,0-.285-3.407c-.143-.164-.173-.432.1-.39l.084.084c.811-.089,1.177-.871,1.929,0,.4-.158.286-.548.487-.865a.376.376,0,0,1,.1-.3c1.175.976,2.292-.214,3.473,0a1.56,1.56,0,0,0,1.342-.39c.041-.138.784-.133.973,0,.317.112.666-.425.872-.39.262.5.074.807.772.7C580.441,226.727,580.246,225.981,580.718,226Z" transform="translate(-436.911 -209.607)"/><path class="c" d="M643.171,277.506c-.211-.2-.521-.463-.47-.587a3.33,3.33,0,0,1,.386-.57v-.2a5.657,5.657,0,0,1-.487-.855,7.716,7.716,0,0,1,.386-1.259c.062-.417-.626-.841,0-1.157-.13-.114-.1-.154-.1-.285l-.1-.1a2.6,2.6,0,0,1,.3-.771c-.033-.279-.3-.255-.386-.671-.332-1.354.372-1.3-1.158-1.845a1.01,1.01,0,0,0,.285-.772,4.846,4.846,0,0,0-.671-.772c-.068-.287.26-.476.185-.771a.43.43,0,0,1-.185-.386c-.275-.522.1-1.214-.386-1.728l.386-.386v-.1c-.12-.245-.711-.371-.973-.486h-.1c-.041-.124.629-.624.587-.772l-.1-.084v-.1c-1.2-1.1.106-.439.486-.973-.032-.336-1.155.017-1.057-.487-.114-.526.6-.242.671-.57-1.006-.4-.606-2.008-.671-2.8-.086-.551-.787-1.646,0-2.029.1-.616-.941-1.255-.386-1.828-.9-.463-.662-1.825-.386-2.214-.115.028-.212-.12-.3-.2-.648.026-.266-.391-.185-.671l-.1-.1v-.956c-.032-.072.512-.329,0-.386-1.2-.035.227-2.628-.956-2.6-.172-.191-.9-.842-.872-.973,1.342-.1.126-1.686-.2-2.114l-.185-.587.1-.1c-.013-.271-.047-.533.285-.57.337-.371.362-.54.1-.872-.525-.328-.825-2.261-1.258-2.6.324-.4-.224-.683-.1-1.158l-.1-.1c-.049-.423.333-.526.587-.772-.829.011-.949-.825-.872-1.443l.1-.1c.01-.484-.542-.874-.1-1.258.369-.37-.34-.759-.57-1.057.524-.51-.206-1.1-.3-1.443-.011-.37.517-.918-.084-1.157,1.089-2.12-.934-.717-.771-1.929.744-.66.148-1.3-.3-1.845-.292-.474.657-.988.3-1.443-.186-.171-.279-.316-.587-.285-.454.057-.494-1.082-.184-1.443-.083-.277-1.068-.341-.973-.872.294-.48.55-1.65-.386-1.745-.216-1.051-.13-2.952-1.158-3.271-.124-.466.447-.182.671-.486-.417-.525-.725-.483-1.057-.772.268-.115,1.183-.422.587-.772-.823-.106-.413-1.032-.872-1.442.524-.492.5-.868-.1-.973,0-.1-.1-.1-.184-.1a.42.42,0,0,0-.3-.084c-.626-.391-1.58.225-2.214.57-.25-.155-.877-.581-.872-.872.258-.187.252-.374,0-.57-.084,0-.084,0-.084-.1-.29-.245-1.088-.169-1.358-.487-.11.117-.444.108-.587.1l-.184-.185c-.082-.264-.247-.016-.587.285a.7.7,0,0,1-.957-.2c-.253-.187-.63-.012-.872.1a3.429,3.429,0,0,0-1.929-.1c-.315.237-.439.076-.57-.386-.746-.313-2.155.816-3.187.973-.217-.807-1.066.245-1.443.185a.428.428,0,0,1-.688.386c-.423-.05-.645,1.192-.772,1.46-.477,1.336-.484,1.451-.184,2.315a5.068,5.068,0,0,0-.772,2.214c-.39.517.291.549.285,1.057.08.569-.292.691-.285,1.158-.962.2-.425.746-.285,1.158.014.963.709,1.2-.3,1.745.5.321-.17.6-.185.956l.1.1c.066.426-.453.777,0,1.158.326.295-.4.713-.587.973.034.214.281.479.285.671-.117.351-.531.805.1.957a.725.725,0,0,0-.386.771c.261.267-.008.532-.1.772a7.282,7.282,0,0,1-.184,2.029l-.1.1.2.771c-1.243.662-.322,2.124-.688,3.187-.083.413-.37,1.081,0,1.443-.306.594-.4,2.087-1.057,2.6.185.159.312.4.1.587v.57l-.1.1c0,.593.064,1.436-.386,1.828-.058.212.218.666.2.872,0,.469-.573.911.184,1.158-.288.6-.827,1.183-1.157,1.745-.047.141.807.323.772.57-.81.1-.972,1.143-.671,1.828,0,.6.068,1.418-.386,1.845-.145.177-.1.328.1.469.771.576-.634,1.216-.386,1.745.5.8-.968.725-.772,1.543.164-.008.59-.017.57.185-.007.312-.764.108-.671.486.413.833.012,1.328,0,2.13a7.605,7.605,0,0,1-.2,3.087h-.184a3.174,3.174,0,0,0-.285.386c.264,1.449-.662,2.062,0,3.086-.136.126-.771.355-.772.486.151.245.832-.168.671.47l-.2.1c.006.2-.324.377-.47.486.011.138.555.19.671.285-.805.719-.333,1.76-.973,2.6,1,.819-.228,1.555,0,2.315a.835.835,0,0,1-.184,1.258v.772l.1.1a1.939,1.939,0,0,0,.956,2.885c-.2,1.815.553,1.223,1.745,1.358.578.022,1,.5,1.627.1.186.387.74.268,1.074.285l.285.285c.207-.2.493-.588.771-.285.13.12.38.444.57.386,1.993-.836,5.119-1.535,4.731-3.959.4-.5-.032-1.207.772-1.342-.737-.745-.079-.728,0-1.544l-.1-.1c.034-.236-.091-.785.1-.973.151-.326.607-.54.285-.856-.6-1.569.032-2.469,1.745-1.644.145-.048.54-.384.671-.386.285.031.508.259.872.185,2.319-.911,4.459-.454,6.458-1.158.8-.534,1.391.947,2.231.671.057.134.98.787.57.872l-.184.2v.57c.19.175.458.513.184.771a3.863,3.863,0,0,1,.286.3c.034.136-.446.636-.185.856.79.1.672.951.671,1.543-.223.334-.543.913.2.872.4.281-.768.314-.587.772.521.126.607.986.872,1.258a1.426,1.426,0,0,1,.956,1.644c.725,2.013,4.187.322,5.5,1.728a2.547,2.547,0,0,1,1.745,0c1.289-1.012,3.3.625,4.428-1.259ZM626.3,258.785h-.285l-.1.1c-.789-.4-1.418.187-2.214.285-.5.038-.78-.726-1.157-.386a6.23,6.23,0,0,1-2.315.386c-.269-.024-2.126.734-2.13,0,.472-.537.077-2.206.772-2.7.371-.685-.028-1.986.587-2.5a11.267,11.267,0,0,1,.386-3.573c.372-1.8.46-5.54,1.241-7.23,0-.1,0-.1.1-.2.1,0,.1,0,.1-.1a2.85,2.85,0,0,0-.386-.47,4.9,4.9,0,0,0,1.057-.771c-.438-.257-.344-1.478-.185-1.845.314-.2.49-.694.57-.671.154-.121.087-.235.1-.386h-.1c-.132-.138-.443-.377-.386-.587.145-.3.905-.432.973-.771-.142-.147-.089-.394-.1-.57a.937.937,0,0,1-.185-.671c-.137-.535.784-.357.772-.872,0-.265.119-.3.285-.285.449.605-.124,1.873.486,2.4.078.8-.632.207-.688.771-.1.638.838.127.688.688.071.313-.253.419-.2.671-.143-.026-.091.1-.1.184.518.643-.505,1.724.487,2.13.76.377-.273,1.226.185,1.644a.609.609,0,0,1,.1,1.157v.487a.774.774,0,0,1,.688,1.141c.052.2-.245.387-.2.587a1.622,1.622,0,0,0,.486.285l.1.3a1.149,1.149,0,0,0,.084,1.342c.271.211.318.478-.185.487a.354.354,0,0,1-.285.1c1.426.587-.028.964.772,1.728-.54.538-.157.639,0,1.157a1.014,1.014,0,0,0,.386.973,1.383,1.383,0,0,0,.185.856c.377.416-.3,1.169-.185,1.845a1.233,1.233,0,0,1,0,1.543C627.014,258.226,627.73,258.454,626.3,258.785Z" transform="translate(-459.66 -209.607)"/></g></g><g transform="translate(454.121 181.114)"><path class="b" d="M661.2,221.335a.086.086,0,0,1-.1.1v.019c.039,0,.059.013.059.039v.02a.362.362,0,0,0,.019.117l.02.039v.038a.317.317,0,0,0-.02.078.857.857,0,0,0-.019.272c0,.013-.02.039-.059.078a.017.017,0,0,0-.019.019l.019.039a.244.244,0,0,1,.078.175v.136a.132.132,0,0,1-.039.1.114.114,0,0,1,.039.078.153.153,0,0,0,.02.1l.019.019c0,.013-.019.02-.058.02a.034.034,0,0,0-.039.038.078.078,0,0,0,.019.059.06.06,0,0,1,.02.039v.019a.09.09,0,0,0-.059.1l.02.039v.214a.619.619,0,0,0,.039.155v.058a.078.078,0,0,1-.039.078.173.173,0,0,1,.116.117.057.057,0,0,1,.039-.02.034.034,0,0,1,.039.039l.039.039h.02a.354.354,0,0,1,.1.039h.059c.038,0,.058-.013.058-.039l.1.02.1.039a.114.114,0,0,0,.078-.039.055.055,0,0,1,.039-.02h.019a.151.151,0,0,0,.136.059.054.054,0,0,0,.039-.02h.233a.176.176,0,0,0,.155-.1.211.211,0,0,0,.1-.155.212.212,0,0,1,.02-.1.544.544,0,0,0,.039-.117.263.263,0,0,1,.039-.175.034.034,0,0,1-.039-.039V223.1a.341.341,0,0,0,.039-.1.149.149,0,0,1-.02-.1v-.1a.427.427,0,0,1-.019-.136.112.112,0,0,1,.019-.078.065.065,0,0,1-.019-.048.064.064,0,0,1,.019-.048h.039c.013,0,.02-.013.02-.039a.059.059,0,0,0-.02-.039.078.078,0,0,1-.019-.059v-.038c0-.013,0-.02.01-.02s.01-.006.01-.019a.082.082,0,0,0-.019-.059v-.175a.486.486,0,0,0-.039-.213v-.02c0-.013.013-.032.039-.058a.175.175,0,0,0,.019-.078.051.051,0,0,0-.058-.058c0-.013.006-.02.019-.02.039,0,.059-.007.059-.019l-.02-.039a.26.26,0,0,1-.019-.136.034.034,0,0,1,.039-.039h.039c.013,0,.039.045.078.136a.079.079,0,0,0,.058.019.059.059,0,0,0,.039-.019l.039.078.019.058a.744.744,0,0,0,.155.291.133.133,0,0,1,.039.1c0,.039.007.059.019.059l.039-.02c.026-.026.045-.039.059-.039s.039.02.039.059a.224.224,0,0,0,.194.136c.039,0,.059.007.059.02l-.02.039v.039a.092.092,0,0,0,.078.1.056.056,0,0,1,.039.019l-.019.02a.11.11,0,0,0-.039.078.034.034,0,0,0,.039.039c.026,0,.039.019.039.058s.019.039.058.039l.078.039.059.059.019.039-.019.019v.039a.017.017,0,0,0,.019.019.18.18,0,0,1,.117.136l.058.1a1.063,1.063,0,0,1,.175.272l.039-.039a.03.03,0,0,1,.038-.01c.013.007.02.029.02.068v.02h-.02a.057.057,0,0,0-.019.039c0,.013.013.019.039.019.051,0,.078.013.078.039v.019a.168.168,0,0,0,.058.117.165.165,0,0,1,.1.136l.1.1a.168.168,0,0,0,.117.059.242.242,0,0,1,.175.077.193.193,0,0,0,.078.039c.013,0,.02-.026.02-.078s.006-.058.019-.058a.064.064,0,0,1,.059.039c.026.026.045.039.058.039s.045-.02.058-.058h-.019l-.02-.02h.039v.02c.052,0,.078.007.078.019l.039.039h.02V224q0-.019.1-.077a.12.12,0,0,1,.048-.029.159.159,0,0,1,.048-.01.459.459,0,0,0,.1-.059.159.159,0,0,0,.039-.117l.039-.019a.112.112,0,0,0,.078-.02l.039-.039a.159.159,0,0,0,.1-.058v-.059a.079.079,0,0,1,.019-.058.056.056,0,0,0,.039.02c.026,0,.039-.007.039-.02v-.136l.02-.02c.013,0,.019-.019.019-.058v-.155a.059.059,0,0,0-.019-.039c-.039,0-.059-.013-.059-.039s-.019-.032-.058-.058l-.039-.02v-.019a.079.079,0,0,0-.039-.078c-.039-.039-.058-.065-.058-.078l-.1-.117-.039-.1-.019-.039-.078-.078a.16.16,0,0,1-.059-.1.244.244,0,0,0-.077-.175.6.6,0,0,1-.1-.194.057.057,0,0,0,.02-.039l-.039-.039c-.039-.026-.059-.051-.059-.077a.412.412,0,0,1-.136-.291.052.052,0,0,0-.058-.059.069.069,0,0,1-.078-.078.26.26,0,0,0-.02-.136h-.039v-.02c-.039,0-.058-.013-.058-.038l.039-.039a.161.161,0,0,0-.1-.059c-.026,0-.038-.026-.038-.078s-.013-.078-.039-.078a.184.184,0,0,1-.078-.1l-.039-.059a.155.155,0,0,1-.019-.1c0-.051-.013-.078-.039-.078s-.052-.051-.117-.155l-.019-.059-.039-.078a.866.866,0,0,1-.136-.272.6.6,0,0,1-.039-.175v-.039l-.02-.019a.069.069,0,0,1,.078-.078,1.143,1.143,0,0,0,.213-.1.539.539,0,0,0,.068-.039.3.3,0,0,0,.048-.039l.019-.019a.112.112,0,0,0,.059-.1h.059l.039.019h.019c.013,0,.019-.013.019-.039s.007-.058.02-.058.032.013.058.039l.02.019.058-.019a.058.058,0,0,0,.02-.039l.019-.059a.057.057,0,0,1,.039.02l.02.019c.013,0,.019-.013.019-.039l-.019-.019.039-.02a.187.187,0,0,0,.116-.175v-.078h.02a.059.059,0,0,1,.039.02c.026.026.039.045.039.058,0,.039.013.058.039.058l.019-.019h.02v-.02l-.02-.019-.019-.02a.078.078,0,0,1,.019-.058c.052-.013.078-.09.078-.233,0-.078.013-.117.039-.117v.019l.039.039.019-.019-.039-.039h-.019c0-.026.019-.039.058-.039a.055.055,0,0,0,.039-.02v-.058a.052.052,0,0,1,.059-.059c.026,0,.039-.019.039-.058s.013-.058.039-.058a.126.126,0,0,1,.078-.059.448.448,0,0,0,.1-.058c-.026-.013-.039-.026-.039-.039a.055.055,0,0,1,.02-.039c.039-.039.058-.065.058-.078v-.059a.034.034,0,0,1-.039-.039l.039-.019c0-.051.006-.078.019-.078.052-.026.078-.045.078-.058s-.013-.032-.039-.059l-.019-.039h.019a.034.034,0,0,1,.039-.038.412.412,0,0,0,.039-.214.112.112,0,0,1,.02-.078c.039-.026.058-.051.058-.078s-.013-.032-.039-.058a.056.056,0,0,1-.019-.039.058.058,0,0,1,.019-.039c.039-.013.059-.032.059-.058l-.02-.02c-.013,0-.019-.013-.019-.039s0-.019.01-.019.01-.007.01-.02v-.078a.112.112,0,0,1-.019-.078v-.078a.188.188,0,0,1-.02-.087.094.094,0,0,1,.02-.068h-.02l-.019-.02c-.013,0-.032-.013-.059-.039a.034.034,0,0,0,.039-.039v-.019a.115.115,0,0,1-.019-.078v-.019a.082.082,0,0,0,.019-.059c0-.026-.026-.039-.078-.039s-.058-.007-.058-.02.019-.039.058-.039a.057.057,0,0,1,.039-.019l-.039-.02c-.039,0-.058-.025-.058-.077a.264.264,0,0,1,.01-.059.252.252,0,0,0,.01-.058.6.6,0,0,0-.058-.272v-.058c0-.039-.013-.059-.039-.059h-.058v-.019l.019-.02v-.039a.123.123,0,0,1-.1-.1,3.471,3.471,0,0,0-.272-.5,1.142,1.142,0,0,0-.194-.213,1.565,1.565,0,0,1-.369-.331c-.026-.064-.058-.1-.1-.1-.013-.013-.078-.058-.194-.136-.026-.026-.045-.039-.058-.039-.1,0-.155-.026-.155-.078h-.039a.422.422,0,0,1-.136-.02.144.144,0,0,1-.068-.039.15.15,0,0,0-.068-.039h-.019c-.013,0-.02,0-.02.01s-.007.01-.019.01c-.026.026-.045.039-.059.039a.055.055,0,0,1-.038-.02c-.052-.051-.085-.078-.1-.078v.02a.078.078,0,0,1-.058.019.765.765,0,0,1-.136-.039h-.019l-.039-.038-.059-.02h-.019a.112.112,0,0,1-.078.02.17.17,0,0,1-.078-.02h-.019a.434.434,0,0,0-.194.039l-.019.019h-.02c-.026,0-.039-.026-.039-.077a.052.052,0,0,0-.058-.059h-.194a.208.208,0,0,0-.117-.019c-.065,0-.1-.02-.117-.058l-.019-.02-.02.02c0,.051-.013.077-.039.077a.111.111,0,0,1-.078-.039l-.078.02c-.013,0-.019-.02-.019-.058,0-.013,0-.02-.01-.02s-.01-.007-.01-.019v-.02l-.02.02a.179.179,0,0,1-.078.019.079.079,0,0,1-.058-.019l-.02-.02-.019.02a.055.055,0,0,0-.02.039c0,.026-.007.038-.019.038l-.039-.019a.158.158,0,0,0-.1-.058h-.039a.484.484,0,0,1-.214-.059.08.08,0,0,1-.058-.019.846.846,0,0,0-.213.117.158.158,0,0,0-.059.1c0,.026.02.045.059.058a.017.017,0,0,1,.019.02.056.056,0,0,1-.019.038.224.224,0,0,0-.039.155.307.307,0,0,1-.039.194.057.057,0,0,0-.02.039.017.017,0,0,0,.02.02.057.057,0,0,1,.019.039v.019a.017.017,0,0,0-.019.019l.019.039a.08.08,0,0,1,.02.059l-.059.117v.252l-.019.039a.058.058,0,0,1,.019.039v.019l-.039.039v.35l-.039.058a.059.059,0,0,0-.019.039.034.034,0,0,0,.039.039l.019.02v.019l-.019.019v.039a.017.017,0,0,0,.019.02.227.227,0,0,0-.039.155v.233a.055.055,0,0,1-.019.038.034.034,0,0,0,.039.039.058.058,0,0,1,.019.039l-.019.02h-.039c-.026,0-.039.007-.039.019l.019.039a.293.293,0,0,1,.039.117.175.175,0,0,1-.019.078c-.039.026-.058.084-.058.175v.311l.019.039a.114.114,0,0,1,.019.078.279.279,0,0,1-.038.155v.039a.111.111,0,0,1,.038.077.056.056,0,0,1-.019.039v.02a.057.057,0,0,0,.019.039.055.055,0,0,1,.02.039.057.057,0,0,1-.02.039l.02.039c0,.013-.013.032-.039.058a.167.167,0,0,0-.058.117.272.272,0,0,0,.039.155.205.205,0,0,1,.019.116.95.95,0,0,1-.019.214v.058a.133.133,0,0,1,.038.1.3.3,0,0,1-.038.116c-.026,0-.039.02-.039.059v.039a.077.077,0,0,0,.019.058.059.059,0,0,1,.02.039c0,.013-.013.084-.039.214a1.639,1.639,0,0,0-.039.252.035.035,0,0,1,.039.039.081.081,0,0,1-.02.059l-.019.1a.082.082,0,0,1-.02.059.078.078,0,0,0-.019.058.109.109,0,0,0,.039.078.115.115,0,0,1,.019.078.149.149,0,0,0,.02.1v.02a.181.181,0,0,1-.02.078c-.026.026-.039.045-.039.058l-.019.02.019.019.02.02.039.117a.371.371,0,0,1,.019.116v.039a.153.153,0,0,0-.019.1.427.427,0,0,0,.019.136v.155a.262.262,0,0,1-.019.136.057.057,0,0,0-.02.039.054.054,0,0,0,.02.039.058.058,0,0,1,.019.039v.058a.017.017,0,0,1-.019.02.076.076,0,0,0-.059.078.078.078,0,0,0,.02.058.208.208,0,0,1,.019.117.149.149,0,0,0,.02.1Zm.136-2.058.019.019h-.019c-.013,0-.02-.006-.02-.019l.02-.02Zm0,.757.019-.019v.019l-.019.02-.02-.02Zm.117-.349v.039c-.026,0-.039-.007-.039-.02Zm.271-5.961.02.02-.02.019Zm1.049,7.068v.019l-.039.02c-.013,0-.019-.007-.019-.02a.017.017,0,0,1,.019-.019Zm.039-2.854c.026-.026.039-.045.039-.058v-.059a.034.034,0,0,1-.039-.039.057.057,0,0,1,.02-.039.175.175,0,0,0,.019-.077v-.02a.212.212,0,0,1-.078-.136.054.054,0,0,1,.02-.039.114.114,0,0,0,.039-.078v-.039l-.02-.02a.15.15,0,0,1,.02-.058v-.117l-.02-.019a.034.034,0,0,1,.039-.039l-.078-.059c0-.013.013-.019.039-.019h.039v-.059c-.013,0-.019-.013-.019-.039a.078.078,0,0,1,.019-.058.056.056,0,0,0,.019-.039.034.034,0,0,0-.038-.039l-.02-.02.02-.039h.038a.061.061,0,0,0,.039-.058.059.059,0,0,0-.019-.039l-.02-.019a.148.148,0,0,0,.02-.059.176.176,0,0,0,.019-.077.257.257,0,0,1,0-.195c.039-.284.059-.433.059-.446,0-.078.045-.117.136-.117a.129.129,0,0,1,.1.039.168.168,0,0,0,.117.058c.078,0,.123.026.136.078h.019l.02.039.019.02.019-.02.039.059a.058.058,0,0,1-.019-.039l.019-.02c.039,0,.059.007.059.02v.019c0,.026.026.065.078.117s.078.071.078.1a.077.077,0,0,0,.058.02.08.08,0,0,1,.059-.02.018.018,0,0,1,.019.02q.039.1.117.1h.019a.21.21,0,0,1,.117.039.146.146,0,0,0,.059.02c.039,0,.058-.013.058-.039l.02.039a.32.32,0,0,0-.039.1.293.293,0,0,0,.039.117v.117l-.02.077a.056.056,0,0,0-.019.039l.019.02a.035.035,0,0,1,.039.039l-.019.019c-.026.026-.039.045-.039.059a.114.114,0,0,1,.019.078.132.132,0,0,1-.039.1.374.374,0,0,0-.136.233c0,.013-.02.039-.059.078a2.231,2.231,0,0,0-.233.291l-.039.019a.636.636,0,0,1-.059.049.77.77,0,0,0-.078.068h-.1a.114.114,0,0,1-.1.058.144.144,0,0,1-.087-.038.155.155,0,0,0-.068-.039c-.013,0-.02.026-.02.077s-.007.078-.019.078l-.02-.078-.019-.019-.02.039c0,.039-.013.058-.038.058l-.039.059-.039.019a.054.054,0,0,1-.039-.019.052.052,0,0,1-.059.058l-.039-.019h-.019a.078.078,0,0,0-.02.058.156.156,0,0,1-.116.039l-.039-.039c0-.013.013-.032.039-.058v-.02a.221.221,0,0,0-.02-.1Zm.039,2.99v-.058c0,.026-.007.039-.019.039a.019.019,0,1,0,0,.039Zm.039-5.4h-.02c-.026,0-.038-.006-.038-.019l.019-.02A.035.035,0,0,1,662.892,215.53Zm.175-.019.02.039.058.058a.056.056,0,0,0-.039.019h-.019c-.026,0-.039-.019-.039-.058A.078.078,0,0,1,663.066,215.51Zm.117-.039a.077.077,0,0,0,.058-.02v.1c0,.026-.007.038-.019.038h-.078v-.1A.056.056,0,0,1,663.183,215.472Zm.058,5.864.02-.019h.019v.019l-.019.019Zm.059.311v-.019l.019-.02v.039Zm.155.233a.054.054,0,0,1-.039-.019.017.017,0,0,1-.02-.019.018.018,0,0,1,.02-.02h.058a.018.018,0,0,1,.02.02Zm.136-3.825a.017.017,0,0,1,.019-.02.018.018,0,0,1,.02.02v.039h-.02Zm.136-1.825a.081.081,0,0,0-.019-.058l-.02.019a.076.076,0,0,0,.02.058Zm.1,6h-.039c-.026,0-.039-.006-.039-.019l.039-.02h.039v.039h.039c0,.026-.007.039-.02.039Zm.039-6.058h-.02l-.019-.02a.056.056,0,0,0,.039-.019Zm.058-.213a.018.018,0,0,1,.02.019l.019-.019c-.013,0-.019-.007-.019-.02Zm.059.252a.017.017,0,0,1,.019-.02l-.019-.019Zm.252,1.048v-.019l.019-.019v.058A.018.018,0,0,0,664.232,217.257Zm.1,5.67.019.02-.019.019Zm.117.136v.02l-.02.019-.019-.019v-.02h.039Zm.058-6.1a.017.017,0,0,1,.02.02h.019v-.02a.017.017,0,0,1-.019-.019Zm.7,2.136a.08.08,0,0,1,.02.059l-.02.019a.079.079,0,0,1-.019-.058Zm.35-.543v.02h-.02l-.019-.02v-.019h.019Zm.272-2.33a.054.054,0,0,1-.02.039c-.013,0-.019-.007-.019-.02Zm0,2.252.039-.039a.313.313,0,0,0-.059-.077h-.019v.058C665.785,218.462,665.8,218.481,665.824,218.481Zm.252-.447a.035.035,0,0,0-.039-.039H666v.039h.078Zm.058-.271a.055.055,0,0,0,.039-.02h.02c0-.026-.02-.038-.059-.038a.058.058,0,0,0-.039.019A.034.034,0,0,0,666.134,217.763Z" transform="translate(-657.23 -211.89)"/><path class="b" d="M667.436,217.14a.455.455,0,0,0,.035-.176.352.352,0,0,0-.031-.131.3.3,0,0,0-.026-.228l.031-.139a.312.312,0,0,0,0-.137.6.6,0,0,1-.01-.152.239.239,0,0,1-.067.123.4.4,0,0,0,.085-.248c0-.009,0-.019,0-.028a.305.305,0,0,0,.118-.243.294.294,0,0,0-.041-.154.255.255,0,0,0,0-.03.423.423,0,0,0-.026-.15.231.231,0,0,0,.006-.054.381.381,0,0,0-.037-.145l-.065-.232a.5.5,0,0,0,0-.069v-.008a.3.3,0,0,0-.02-.325.52.52,0,0,0-.047-.242.4.4,0,0,0,.027-.144.319.319,0,0,0-.1-.226c0-.016,0-.031,0-.046a1.336,1.336,0,0,0-.215-.731l-.126-.234a.376.376,0,0,0-.033-.09.4.4,0,0,0-.1-.186.3.3,0,0,0-.117-.072l-.019-.007a.518.518,0,0,0-.188-.232.387.387,0,0,0-.2-.251l-.026-.013-.021-.033a.33.33,0,0,0-.169-.285.354.354,0,0,0-.3-.2l-.018-.009a.932.932,0,0,0-.09-.1.421.421,0,0,0-.193-.1l-.033-.006-.007-.007a.257.257,0,0,0-.073-.053.368.368,0,0,0-.223-.1.532.532,0,0,0-.207-.092.3.3,0,0,0-.136,0,.466.466,0,0,0-.181-.122.405.405,0,0,0-.36-.058c-.09-.033-.191-.016-.312-.05-.081-.02-.137-.032-.186-.039a.339.339,0,0,0-.217-.116.293.293,0,0,0-.147.014.337.337,0,0,0-.184-.016.318.318,0,0,0-.231.034.551.551,0,0,0-.156-.022l-.1-.01-.036-.005a.36.36,0,0,0-.3.022.34.34,0,0,0-.208.02.692.692,0,0,1-.17.013h-.582a.3.3,0,0,0-.139.035.1.1,0,0,0-.023-.007.989.989,0,0,0-.213-.026.3.3,0,0,0-.11-.022h-.1a.509.509,0,0,0-.173.051.305.305,0,0,0-.075.054.387.387,0,0,0-.268.049,1.263,1.263,0,0,0-.15,0,.385.385,0,0,0-.4.091l0,0a.408.408,0,0,0-.411.047,1.029,1.029,0,0,0-.307.037.6.6,0,0,0-.311.116h-.116a.45.45,0,0,0-.117.02.466.466,0,0,0-.295.1l-.066,0a.808.808,0,0,0-.355.132.463.463,0,0,0-.273.078h-.021a.417.417,0,0,0-.272.088.333.333,0,0,0-.242.221l0,0a.485.485,0,0,0-.478.252.3.3,0,0,0-.21.114.37.37,0,0,0-.094.091.344.344,0,0,0-.247.244.326.326,0,0,0-.142.21.433.433,0,0,0-.188.231h-.024a.351.351,0,0,0-.338.319.4.4,0,0,0,0,.06c-.019.035-.035.066-.051.1,0,.008-.008.016-.011.025a.285.285,0,0,0-.032.045.529.529,0,0,0-.065.3v.117a.653.653,0,0,1-.027.216.686.686,0,0,0-.09.308.37.37,0,0,0,.01.084.574.574,0,0,0-.01.11v.05a.3.3,0,0,0-.164.41.414.414,0,0,0,.053.083c-.009.04-.018.086-.027.138a.829.829,0,0,0-.035.27v.032a.524.524,0,0,0-.039.172.391.391,0,0,0-.059.2.342.342,0,0,0,.02.117.93.93,0,0,0-.078.311.755.755,0,0,0,.062.282.465.465,0,0,0-.023.145.248.248,0,0,0,.012.074.3.3,0,0,0-.012.082c0,.012,0,.024,0,.036a.328.328,0,0,0-.035.244.3.3,0,0,0,.108.168l0,.02a.3.3,0,0,0-.031.13.3.3,0,0,0,.085.212c.01.01.024.025.044.042a1.1,1.1,0,0,0-.026.166.371.371,0,0,0-.084.243.3.3,0,0,0,.032.135l.01.018a.315.315,0,0,0,0,.042.383.383,0,0,0,.035.172l.082.255v.1a.566.566,0,0,0,.107.339.211.211,0,0,0,0,.022.259.259,0,0,0,.011.073.289.289,0,0,0,.032.111.686.686,0,0,1-.028.075.4.4,0,0,0-.025.138c0,.022,0,.042,0,.062a.341.341,0,0,0-.018.036.3.3,0,0,0,.063.325.527.527,0,0,0,.05.045.348.348,0,0,0,.117.258.493.493,0,0,0,.121.287.476.476,0,0,0,0,.074.368.368,0,0,0,.041.166c0,.016,0,.031,0,.048a.335.335,0,0,0,.08.212.3.3,0,0,0,.1.262.38.38,0,0,0,.079.13.5.5,0,0,0,.225.375.72.72,0,0,1,.037.066.867.867,0,0,0,.152.232.782.782,0,0,1,.109.143,2.763,2.763,0,0,0,.187.232l.042.072a.7.7,0,0,0,.194.192.364.364,0,0,0,.213.254l.011.014a1.437,1.437,0,0,0,.53.444.524.524,0,0,0,.208.172.38.38,0,0,0,.129.064.333.333,0,0,0,.276.131l.042.047a.362.362,0,0,0,.188.1.563.563,0,0,0,.075.056.264.264,0,0,0,.188.033.227.227,0,0,0,.073.023.431.431,0,0,0,.264.125.3.3,0,0,0,.114.054.2.2,0,0,0,.072.008.451.451,0,0,0,.164.038.369.369,0,0,0,.459,0,.681.681,0,0,0,.379.072.654.654,0,0,0,.566,0h.155a.756.756,0,0,0,.093-.005.4.4,0,0,0,.273.083.332.332,0,0,0,.235,0,.581.581,0,0,0,.271.014.376.376,0,0,0,.1.076.3.3,0,0,0,.133.031.317.317,0,0,0,.237-.108.393.393,0,0,0,.069-.02.317.317,0,0,0,.2-.011.4.4,0,0,0,.225-.035,1.765,1.765,0,0,1,.484-.145l.525-.121a1.567,1.567,0,0,0,.636-.28c.05-.037.216-.141.5-.316a1.862,1.862,0,0,0,.5-.389.6.6,0,0,1,.067-.052.55.55,0,0,0,.087-.083.433.433,0,0,0,.2-.1.334.334,0,0,0,.083-.172l0,0a.56.56,0,0,0,.239-.093,1.143,1.143,0,0,0,.237-.262.315.315,0,0,0,.031-.06c.021-.057.037-.1.037-.1a2.99,2.99,0,0,0,.2-.337c.014-.026.068-.148.167-.375a2.231,2.231,0,0,1,.1-.251.423.423,0,0,0,.05-.182.326.326,0,0,0,.026-.039.624.624,0,0,0,.226-.435,1.2,1.2,0,0,1,.105-.465.384.384,0,0,0,.032-.153.461.461,0,0,0-.01-.1.725.725,0,0,0,.047-.147.376.376,0,0,0,.041-.166.4.4,0,0,0-.041-.178l.026-.077a.413.413,0,0,0,.015-.086,2.388,2.388,0,0,1,.054-.252,1.917,1.917,0,0,0,.024-.32v0a.316.316,0,0,0,.194-.288.227.227,0,0,0-.016-.077.3.3,0,0,0,.016-.1.364.364,0,0,0-.024-.132.416.416,0,0,0,.005-.063.285.285,0,0,0,0-.045.61.61,0,0,0,.062-.246.386.386,0,0,0-.035-.154c.005-.013.011-.026.016-.041a.4.4,0,0,0,.039-.175.318.318,0,0,1,.058-.291A.345.345,0,0,0,667.436,217.14Zm-1.165-4.976h0l-.013-.01v0Zm-.353-.288a.254.254,0,0,0-.021-.1h0A.268.268,0,0,1,665.918,211.876Zm-.02-.1h0a.334.334,0,0,0-.048-.078A.284.284,0,0,1,665.9,211.773Zm-.967-.008.013.011-.013-.011Zm-1.967-.491,0,0,0,0Zm-3.1.315a.389.389,0,0,0-.094.073h-.019c-.026,0-.039-.007-.039-.02l-.036-.036A.75.75,0,0,0,659.868,211.59Zm-.2.019a.128.128,0,0,0-.017.009s.008,0,.011-.008Zm-4.314,5.909h0l0-.009Zm4.3,6.955.01-.021h0A.085.085,0,0,1,659.651,224.472Zm1.676.233,0,0,0,0Zm4.288-1.77h0a.272.272,0,0,0,.012-.08A.29.29,0,0,1,665.616,222.936Zm1.184-7.306a.31.31,0,0,0,.008.14.333.333,0,0,0-.032.145.344.344,0,0,0,.063.195.869.869,0,0,0,0,.1,1.322,1.322,0,0,0,.013.19l-.026.114a.331.331,0,0,0-.007.065v.078a.438.438,0,0,0,.022.14c0,.021,0,.041,0,.054a.516.516,0,0,0,.013.117.273.273,0,0,0-.041.158.727.727,0,0,0-.031.21.291.291,0,0,0,.026.121.4.4,0,0,0-.007.073.332.332,0,0,0,.032.123.391.391,0,0,0-.032.148v.1a.406.406,0,0,0,.025.11c-.007.017-.017.039-.032.067a.4.4,0,0,0-.032.154.366.366,0,0,0,0,.057.332.332,0,0,0-.011.091.291.291,0,0,0-.071.182v.01a.5.5,0,0,0-.078.282v.1a1.668,1.668,0,0,1-.011.2,2.485,2.485,0,0,0-.063.3l-.047.139a.441.441,0,0,0,.02.291l-.007.026a.392.392,0,0,0-.087.244.327.327,0,0,0,.023.11,1.966,1.966,0,0,0-.122.593.278.278,0,0,0-.046.038.628.628,0,0,0-.086.105l-.032.032a.455.455,0,0,0-.086.268v0c-.026.055-.062.136-.111.267l-.144.326c-.068.124-.118.209-.124.223a.642.642,0,0,0-.133.245.54.54,0,0,1-.062.072c-.013,0-.033,0-.06,0a.35.35,0,0,0-.311.181.328.328,0,0,0-.056.04.346.346,0,0,0-.211.178.353.353,0,0,0-.025.094,1.229,1.229,0,0,0-.148.143,1.888,1.888,0,0,1-.335.242c-.312.19-.495.306-.573.368a1.544,1.544,0,0,1-.407.16l-.5.115a2.746,2.746,0,0,0-.542.154.317.317,0,0,0-.137-.024.335.335,0,0,0-.367.048l-.019.021a.583.583,0,0,0-.374,0,.4.4,0,0,0-.153-.032.456.456,0,0,0-.107.013.407.407,0,0,0-.113-.012l-.032-.016a.419.419,0,0,0-.234-.062.17.17,0,0,0-.1.018h-.174a.937.937,0,0,0-.27.058.542.542,0,0,1-.153-.052.222.222,0,0,0-.214-.006.628.628,0,0,1-.143-.063c-.284-.093-.307-.062-.4-.015a.341.341,0,0,0-.185-.012l-.031-.015a.289.289,0,0,0-.083-.027.437.437,0,0,0-.167-.042l-.03-.021a.346.346,0,0,0-.09-.165.3.3,0,0,0-.143-.08.409.409,0,0,0-.383-.062.788.788,0,0,0-.115-.069.263.263,0,0,0-.09-.026.409.409,0,0,0-.136-.066v-.009a.341.341,0,0,0-.182-.229.322.322,0,0,0-.215-.022,1.085,1.085,0,0,1-.194-.186.4.4,0,0,0-.16-.194.334.334,0,0,0-.245-.242l0,0a1.075,1.075,0,0,0-.058-.1.7.7,0,0,0-.086-.1c-.017-.019-.055-.07-.1-.126a1.155,1.155,0,0,0-.173-.224.6.6,0,0,1-.048-.087.739.739,0,0,0-.208-.277.627.627,0,0,0-.1-.253.469.469,0,0,0-.028-.075v-.017a.373.373,0,0,0-.068-.213.319.319,0,0,0,.01-.077.3.3,0,0,0-.06-.175c0-.013,0-.026,0-.039a.386.386,0,0,0-.117-.259.364.364,0,0,0,.039-.148.327.327,0,0,0-.137-.255.3.3,0,0,0-.088-.191.514.514,0,0,0-.048-.041.26.26,0,0,0-.008-.048.724.724,0,0,0,.047-.242.491.491,0,0,0-.042-.205.327.327,0,0,0,0-.047.369.369,0,0,0-.117-.272v-.1a.512.512,0,0,0-.035-.211l-.062-.169a.3.3,0,0,0,0-.222.292.292,0,0,0,.023-.116,1.5,1.5,0,0,1,.013-.181h0a.417.417,0,0,0,.1-.247.367.367,0,0,0-.107-.231.279.279,0,0,0-.06-.047.575.575,0,0,0,.012-.111.363.363,0,0,0-.026-.12.291.291,0,0,0-.029-.08.351.351,0,0,0-.023-.16v-.126a.169.169,0,0,0,0-.03.553.553,0,0,0,.022-.164.29.29,0,0,0-.032-.134c-.034-.068-.041-.1-.046-.1a.308.308,0,0,1,.012-.064.386.386,0,0,0,.124-.268.3.3,0,0,0-.041-.131.55.55,0,0,0,.02-.116.3.3,0,0,0,.059-.152.306.306,0,0,0-.018-.134.361.361,0,0,1,.014-.107c.023-.116.039-.195.052-.236a.3.3,0,0,0,.031-.133.321.321,0,0,0-.014-.092,1.014,1.014,0,0,0,.06-.1.487.487,0,0,0,.032-.173v-.066a.363.363,0,0,0,.017-.035.3.3,0,0,0,0-.218c0-.009.008-.019.014-.029a1.188,1.188,0,0,0,.083-.468v-.006a.359.359,0,0,0,.1-.071.289.289,0,0,0,.048-.07.075.075,0,0,0,.034.011v-.019l-.017-.017a.308.308,0,0,0,.025-.119.339.339,0,0,0-.02-.114.48.48,0,0,0,.222-.161l.023.023.1-.1-.039-.02h-.02l-.007,0a.5.5,0,0,0,.024-.057h0a.543.543,0,0,0,.17-.151h.045a.418.418,0,0,0,.25-.107.3.3,0,0,0,.087-.213v-.014a.274.274,0,0,0,.035-.06.344.344,0,0,0,.273-.209.355.355,0,0,0,.284-.1.361.361,0,0,0,.107-.058,2.283,2.283,0,0,1,.456-.185.293.293,0,0,0,.118-.105.329.329,0,0,0,.157-.089l.017-.019.021-.008a.462.462,0,0,0,.311-.1.824.824,0,0,0,.175-.02h.1a.5.5,0,0,0,.282-.088c.029-.02.048-.031.044-.033l.114-.02a.4.4,0,0,0,.41-.038.064.064,0,0,0-.014.036c0,.026.032.039.1.039s.1-.019.1-.058a.349.349,0,0,0,.209-.053.37.37,0,0,0,.177.019.31.31,0,0,0,.17-.1.667.667,0,0,0,.157-.023.3.3,0,0,0,.122.026.418.418,0,0,0,.349-.137,1.008,1.008,0,0,1,.106.008.629.629,0,0,0,.4-.007h.5a1.349,1.349,0,0,0,.306-.028.36.36,0,0,0,.329-.025,1.139,1.139,0,0,0,.182.017.474.474,0,0,0,.335.011.261.261,0,0,0,.1,0,.321.321,0,0,0,.105.025.442.442,0,0,0,.214.059h.08c.026,0,.072.014.129.028a1.277,1.277,0,0,0,.27.048.348.348,0,0,0,.341.06.457.457,0,0,0,.172.125.373.373,0,0,0,.335.07.424.424,0,0,0,.108.034l.043.034a.3.3,0,0,0,.078.056l.078.039a.32.32,0,0,0,.075.028l0,.005a.417.417,0,0,0,.188.163.389.389,0,0,0,.079.04.335.335,0,0,0,.1.116.3.3,0,0,0-.011.08.417.417,0,0,0,.109.252.292.292,0,0,0,.218.076.748.748,0,0,0,.111.136.378.378,0,0,0,.035.029.356.356,0,0,0,.264.3l0,0a.633.633,0,0,0,.036.087l.145.267a.765.765,0,0,1,.127.424.6.6,0,0,0-.02.152.419.419,0,0,0,.078.256.581.581,0,0,0,.062.248h0a.682.682,0,0,0,.023.182.348.348,0,0,0,0,.051v.05a.3.3,0,0,0-.009.185l.055.2a.35.35,0,0,0-.085.228A.326.326,0,0,0,666.8,215.63Z" transform="translate(-654.637 -210.722)"/><path class="b" d="M655.987,221.408a.077.077,0,0,0,.058.019l.02-.019a.078.078,0,0,0-.058-.02Z" transform="translate(-655.18 -215.011)"/><path class="b" d="M656.266,222.07a.058.058,0,0,0-.019.039.056.056,0,0,0,.019.039l.02-.019a.081.081,0,0,0,.019-.059Z" transform="translate(-655.284 -215.285)"/><path class="b" d="M656.344,217.971c0,.013.02.02.059.02v-.078c-.039,0-.059.013-.059.039Z" transform="translate(-655.323 -213.614)"/><path class="b" d="M656.364,224.246l-.02.02a.018.018,0,0,1,.02.019c0,.013.006.019.019.019l.02-.038h-.02Z" transform="translate(-655.323 -216.16)"/><path class="b" d="M656.461,216.452l-.019.019.019.02h.019l.058-.02-.058-.019Z" transform="translate(-655.362 -213.026)"/><path class="b" d="M656.474,225.214l.02.019v-.019l.019-.02-.019-.039A.079.079,0,0,0,656.474,225.214Z" transform="translate(-655.375 -216.526)"/><path class="b" d="M656.74,216.01l.02-.039c0-.026-.007-.039-.02-.039H656.7v.039Z" transform="translate(-655.467 -212.817)"/><path class="b" d="M662.7,212.425c-.013,0-.019.013-.019.039h.078a.035.035,0,0,0-.039-.039Z" transform="translate(-657.87 -211.407)"/><path class="b" d="M665.911,212.2l-.019.02.019.019h.019l.039-.019-.019-.02Z" transform="translate(-659.162 -211.316)"/><path class="b" d="M666.477,212.087l.019.02a.077.077,0,0,0,.058.019v-.039a.048.048,0,0,0-.077,0Z" transform="translate(-659.398 -211.264)"/></g></g></svg>