<?xml version="1.0" encoding="utf-8"?>
<!-- Generator: Adobe Illustrator 25.2.0, SVG Export Plug-In . SVG Version: 6.00 Build 0)  -->
<svg version="1.1" id="Capa_1" xmlns="http://www.w3.org/2000/svg" xmlns:xlink="http://www.w3.org/1999/xlink" x="0px" y="0px"
	 viewBox="0 0 3036.3 108.7" style="enable-background:new 0 0 3036.3 108.7;" xml:space="preserve">
<style type="text/css">
	.st0{fill:#FFFFFF;}
</style>
<g>
	
		<image style="overflow:visible;opacity:0.1;" width="3067" height="100" xlink:href="B7A38EB0FFD762D2.png"  transform="matrix(1 0 0 1 -8.4863 -8.0999)">
	</image>
	<g>
		<path class="st0" d="M3036.3,0v66.8c-8.4-0.2-12.3-0.2-14.3,0.1c0,0.3,0,0.3-1.1,0.3h-1.1c-1.1,0.3-1.1,0-1.1-0.6
			c0-0.6-1.1-0.6-2.3-0.3c1.1,0.3,0,0.3,0,0.6c-2.3,0.3-3.4,0.3-4.5,0.3c-3.4,0-5.6-1-6.8-0.7c0,0.3-1.1,0.3-3.4,0
			c-1.1-0.3-4.5-0.6-10.1-0.3c-1.1,0-1.1,0-2.3,0.3c-2.3,0.3-3.4,0-4.5-0.8c0-0.3-1.1-0.3-2.2-0.3c-2.3,0-3.4,0-4.5,0.3
			c-3.4,0.6-4.5,0.6-5.6-0.3c0-0.3,0-0.3-1.1-0.3c-1.1,0-2.2,0-2.2,0.3c0,0.3-1.1,0.3-2.3,0.3h-2.3c-1.1,0.3-1.1,0.3-1.1,0
			c-1.1,0-1.1,0-1.1-0.3c0-0.3-1.1-0.3-2.3-0.3c-1.1,0-1.1,0.3-1.1,0.6c0,1.1-2.3,1.7-6.8,1.7c-3.4,0-5.6,0-6.8,0.3l-1.1-0.3V67
			v-0.3c-1.1,0-1.1,0-2.3,0.3c-1.1,0.8-4.5,1.1-10.1,0.3l-2.2,0.3c-1.1,0.3-2.3,0-3.4-0.3c-1.1,0.3-3.4,0.6-5.6,0.6h-5.6
			c-1.1,0-2.3,0-3.4,0c-1.1-0.3-2.3-0.3-3.4-0.3h-5.6c-3.4,0-5.6-0.3-6.8-0.6h-1.1v0.8c0,0.6-1.1,0.6-2.3,0.3
			c-3.4-0.3-6.8-0.6-7.9-0.3h-2.3h-1.1c-1.1,0.3-3.4,0.6-4.5,0.6c-2.3-0.3-3.4-0.3-3.4,0h-3.4c-1.1,0-2.2,0-3.4-0.3
			c-1.1-0.3-2.2-0.3-3.4-0.3l-1.1,0.3c-1.1-0.3-2.3-0.3-3.4,0l-1.1,0.3h-1.1h-1.1c-1.1-0.8-3.4-0.8-6.8-0.3h-10.1l-3.4,0.3
			c-2.3,0.3-3.4,0.3-4.5,0c-3.4-0.8-6.8-0.6-10.1,0.3c-1.1-0.3-3.4-0.6-6.8-0.3c-3.4,0.3-5.6,0.3-6.8,0c-1.1,0-1.1,0-2.2,0.3
			c-1.1,0.3-2.3,0.3-3.4,0c-1.1-0.3-2.2-0.3-2.2,0c0,0.3,0,0.6-1.1,0.8c-1.1,0.3-2.2,0-3.4-0.6c0-0.3,0-0.3-1.1-0.3h-1.1
			c-1.1,0.3-2.3,0.3-3.4,0.3h-2.3c-1.1,0.3-1.1,0.3-2.3,0c-1.1-0.3-2.2-0.6-3.4-0.3h-3.4c-1.1,0-2.2,0-3.4,0.3
			c-1.1,0.3-3.4,0.6-6.8,0.3c-2.3,0-4.5,0-5.6,0.3c-2.2,0.3-3.4,0.3-4.5,0c-1.1-0.3-3.4-0.6-6.8-0.6c-3.4,0-4.5,0-5.6-0.3
			c-1.1,0.3-3.4,0.6-4.5,0.3c-1.1-0.3-3.4,0-4.5,0.3c-2.3,0-5.6,0-9-0.3c-4.5-0.3-6.8-0.3-7.9,0c-1.1,0.3-2.2,0.3-2.2-0.3l-1.1-0.3
			c0-0.3,0-0.3-1.1,0c-1.1,0.6-3.4,0.6-6.8,0.3c-1.1,0-3.4,0.3-7.9,0.8h-2.3v-0.3v-0.3c0-0.8-1.1-0.8-3.4-0.3l-2.3,0.3h-4.5h-7.9
			c-1.1,0-3.4-0.3-5.6-0.8c-1.1,0-2.3,0-3.4,0.3c-1.1,0.3-1.1,0.3-2.3,0h-2.3c-1.1,0-2.2,0-3.4-0.3l-2.2-0.3c-1.1,0.3-2.3,0.3-2.3,0
			l-2.3,0.3c0,0.8-1.1,0.8-4.5,0.3c-1.1-0.3-2.3-0.6-3.4-0.6c-1.1-0.3-2.3-0.3-2.3,0c0,0.3,0,0.6-1.1,0.6c0,0.3,0,0.3-1.1,0
			c-1.1,0-1.1,0-2.2-0.3c-1.1-0.3-2.3-0.3-3.4-0.3v0.6c0,0.3-1.1,0.3-2.3,0l-2.3-0.6c-1.1-0.3-3.4-0.3-4.5,0c-5.6,0-12.4,0-22.5-0.3
			c-3.4,0-4.5,0-5.6,0.3h-3.4c-1.1-0.3-3.4,0-4.5,0.3h-2.3c-1.1,0.3-3.4,0-4.5-0.3c-1.1-0.3-2.3-0.6-2.3-0.3l-5.6,0.3
			c-1.1,0.3-3.4,0.6-5.6,0.3l-1.1,0.3h-1.1c-1.1,0-1.1,0-2.3-0.3c-3.4,0-4.5,0-5.6,0.3v0.3c-1.1-0.3-2.3-0.6-3.4-0.6l-2.3,0.3h-2.3
			c-1.1,0-2.3,0-3.4-0.3c-1.1,0-2.3,0-2.3,0.3c-1.1,0.3-2.2,0.3-3.4,0l-2.2-0.6l-1.1,0.3c-3.4-0.3-6.8-0.3-7.9,0
			c-1.1,0.3-2.3,0.3-4.5,0c-2.3-0.3-3.4-0.3-4.5,0c-1.1,0.3-3.4,0.6-4.5,0.3l-4.5-0.6c-1.1,0-1.1,0-2.3-0.3
			c-3.4-0.6-5.6-0.3-6.8,0.6c0,0.3-1.1,0.3-2.3,0h-5.6c-1.1-0.3-2.2-0.3-5.6-0.3s-5.6-0.3-6.8-0.6c-1.1,0.3-3.4,0.6-5.6,0.6h-6.8
			c-1.1,0.3-2.3,0.3-3.4,0l-1.1-0.6l-1.1,0.3c-1.1,0.3-2.3,0-3.4-0.3c-2.3,0.3-4.5,0.3-7.9,0c-3.4-0.3-5.6-0.3-6.8,0h-4.5
			c-4.5,0-6.8,0-7.9,0.3c-1.1-0.3-2.3-0.3-3.4-0.3h-4.5h-3.4c-5.6-0.3-7.9-0.3-9,0.3c-1.1-0.3-2.3-0.3-5.6-0.3h-4.5
			c-2.2,0-3.4,0-4.5-0.3c-0.5-0.1-1.4-0.2-2.2-0.2c-0.8,0-1.5,0.1-2,0.2c-1,0.3-2.1,0.3-4.2,0.3h-4.2c-3.1,0-4.2,0-5.3,0.3
			c-1-0.6-3.1-0.6-8.4-0.3h-3.1h-4.2c-1,0-2.1,0-3.1,0.3c-1-0.3-3.1-0.3-7.3-0.3h-4.2c-1-0.3-3.1-0.3-6.3,0c-3.1,0.3-5.2,0.3-7.3,0
			c-1,0.3-2.1,0.6-3.1,0.3l-1-0.3l-1.1,0.6c-1,0.3-2.1,0.3-3.1,0h-6.3c-2.1,0-4.2-0.3-5.3-0.6c-1,0.3-3.1,0.6-6.3,0.6
			c-3.1,0-4.2,0-5.2,0.3h-5.3c-1,0.3-2.1,0.3-2.1,0c-1-0.8-3.1-1.1-6.3-0.6c-1,0.3-1,0.3-2.1,0.3l-4.2,0.6c-1,0.3-3.1,0-4.2-0.3
			c-1.1-0.3-2.1-0.3-4.2,0c-2.1,0.3-3.1,0.3-4.2,0c-1-0.3-4.2-0.3-7.3,0l-1.1-0.3l-2.1,0.6c-1.1,0.3-2.1,0.3-3.1,0
			c0-0.3-1.1-0.3-2.1-0.3c-1,0.3-2.1,0.3-3.1,0.3h-2.1l-2.1-0.3c-1,0-2.1,0.3-3.1,0.6v-0.3c-1-0.3-2.1-0.3-5.2-0.3
			c-1.1,0.3-1.1,0.3-2.1,0.3h-1l-1.1-0.3c-2.1,0.3-4.2,0-5.2-0.3l-5.3-0.3c0-0.3-1,0-2.1,0.3c-1,0.3-3.1,0.6-4.2,0.3h-2.1
			c-1-0.3-3.1-0.6-4.2-0.3h-3.1c-1.1-0.3-2.1-0.3-5.3-0.3c-9.4,0.3-15.7,0.3-21,0.3c-1-0.3-3.1-0.3-4.2,0l-2.1,0.6
			c-1,0.3-2.1,0.3-2.1,0v-0.6c-1,0-2.1,0-3.1,0.3c-1,0.3-1,0.3-2.1,0.3c-1.1,0.3-1.1,0.3-1.1,0c-1,0-1-0.3-1-0.6c0-0.3-1-0.3-2.1,0
			c-1,0-2.1,0.3-3.1,0.6c-3.1,0.6-4.2,0.6-4.2-0.3l-2.1-0.3c0,0.3-1,0.3-2.1,0l-2.1,0.3c-1.1,0.3-2.1,0.3-3.1,0.3h-2.1
			c-1,0.3-1,0.3-2.1,0c-1-0.3-2.1-0.3-3.1-0.3c-2.1,0.6-4.2,0.8-5.2,0.8h-7.4h-4.2l-2.1-0.3c-2.1-0.6-3.1-0.6-3.1,0.3v0.3v0.3h-2.1
			c-4.2-0.6-6.3-0.8-7.3-0.8c-3.1,0.3-5.3,0.3-6.3-0.3c-1-0.3-1-0.3-1,0l-1.1,0.3c0,0.6-1,0.6-2.1,0.3c-1.1-0.3-3.1-0.3-7.4,0
			c-3.1,0.3-6.3,0.3-8.4,0.3c-1-0.3-3.1-0.6-4.2-0.3c-1,0.3-3.1,0-4.2-0.3c-1.1,0.3-2.1,0.3-5.3,0.3c-3.1,0-5.3,0.3-6.3,0.6
			c-1,0.3-2.1,0.3-4.2,0c-1.1-0.3-3.1-0.3-5.3-0.3c-3.1,0.3-5.3,0-6.3-0.3c-1.1-0.3-2.1-0.3-3.1-0.3h-3.1c-1.1-0.3-2.1,0-3.1,0.3
			c-1.1,0.3-1.1,0.3-2.1,0h-2.1c-1,0-2.1,0-3.1-0.3h-1c-1,0-1,0-1,0.3c-1.1,0.6-2.1,0.8-3.1,0.6c-1.1-0.3-1.1-0.6-1.1-0.8
			c0-0.3-1-0.3-2.1,0c-1.1,0.3-2.1,0.3-3.2,0c-1-0.3-1-0.3-2.1-0.3c-1.1,0.3-3.1,0.3-6.3,0c-3.1-0.3-5.3,0-6.3,0.3
			c-3.1-0.8-6.3-1.1-9.4-0.3c-1.1,0.3-2.1,0.3-4.2,0l-3.1-0.3h-9.4c-3.1-0.6-5.3-0.6-6.3,0.3h-1h-1.1l-1-0.3c-1-0.3-2.1-0.3-3.1,0
			l-1-0.3c-1.1,0-2.1,0-3.1,0.3c-1.1,0.3-2.1,0.3-3.1,0.3h-3.1c0-0.3-1.1-0.3-3.2,0c-1,0-3.1-0.3-4.2-0.6h-1h-2.1
			c-1-0.3-4.2,0-7.3,0.3c-1.1,0.3-2.1,0.3-2.1-0.3V67h-1c-1.1,0.3-3.1,0.6-6.3,0.6h-5.3c-1,0-2.1,0-3.1,0.3c-1,0-2.1,0-3.1,0h-5.3
			c-2.1,0-4.2-0.3-5.3-0.6c-1,0.3-2.1,0.6-3.1,0.3l-2.1-0.3c-5.3,0.8-8.4,0.6-9.4-0.3c-1.1-0.3-1.1-0.3-2.1-0.3V67v0.3l-1,0.3
			c-1.1-0.3-3.2-0.3-6.3-0.3c-4.2,0-6.3-0.6-6.3-1.7c0-0.3,0-0.6-1-0.6c-1,0-2.1,0-2.1,0.3c0,0.3,0,0.3-1,0.3c0,0.3,0,0.3-1,0h-2.1
			c-1,0-2.1,0-2.1-0.3c0-0.3-1-0.3-2.1-0.3c-1.1,0-1.1,0-1.1,0.3c-1,0.8-2.1,0.8-5.2,0.3c-1.1-0.3-2.1-0.3-4.2-0.3
			c-1,0-2.1,0-2.1,0.3c-1.1,0.8-2.1,1.1-4.2,0.8c-1-0.3-1-0.3-2.1-0.3c-5.2-0.3-8.4,0-9.4,0.3c-2.1,0.3-3.1,0.3-3.1,0
			c-1-0.3-3.1-0.3-6.3-0.3c-1,0-2.1,0-4.2-0.3c0-0.3-1-0.3,0-0.6c-1-0.3-2.1-0.3-2.1,0.3s0,0.8-1,0.6h-1.1c-1,0-1,0-1-0.3
			c-1.9-0.2-5.5-0.3-11.6-0.1v1c-0.8,0-1.5,0.1-2,0.2c-1,0.3-2.1,0.3-4.2,0.3h-4.2c-3.1,0-4.2,0-5.3,0.3c-1-0.6-3.1-0.6-8.4-0.3
			h-3.1h-4.2c-1,0-2.1,0-3.1,0.3c-1-0.3-3.1-0.3-7.3-0.3h-4.2c-1-0.3-3.1-0.3-6.3,0c-3.1,0.3-5.2,0.3-7.3,0c-1,0.3-2.1,0.6-3.1,0.3
			l-1-0.3l-1.1,0.6c-1,0.3-2.1,0.3-3.1,0h-6.3c-2.1,0-4.2-0.3-5.3-0.6c-1,0.3-3.1,0.6-6.3,0.6c-3.1,0-4.2,0-5.2,0.3h-5.3
			c-1,0.3-2.1,0.3-2.1,0c-1-0.8-3.1-1.1-6.3-0.6c-1,0.3-1,0.3-2.1,0.3l-4.2,0.6c-1,0.3-3.1,0-4.2-0.3c-1.1-0.3-2.1-0.3-4.2,0
			c-2.1,0.3-3.1,0.3-4.2,0c-1-0.3-4.2-0.3-7.3,0l-1.1-0.3l-2.1,0.6c-1.1,0.3-2.1,0.3-3.1,0c0-0.3-1.1-0.3-2.1-0.3
			c-1,0.3-2.1,0.3-3.1,0.3h-2.1l-2.1-0.3c-1,0-2.1,0.3-3.1,0.6v-0.3c-1-0.3-2.1-0.3-5.2-0.3c-1.1,0.3-1.1,0.3-2.1,0.3h-1l-1.1-0.3
			c-2.1,0.3-4.2,0-5.2-0.3l-5.3-0.3c0-0.3-1,0-2.1,0.3c-1,0.3-3.1,0.6-4.2,0.3h-2.1c-1-0.3-3.1-0.6-4.2-0.3h-3.1
			c-1.1-0.3-2.1-0.3-5.3-0.3c-9.4,0.3-15.7,0.3-21,0.3c-1-0.3-3.1-0.3-4.2,0l-2.1,0.6c-1,0.3-2.1,0.3-2.1,0v-0.6c-1,0-2.1,0-3.1,0.3
			c-1,0.3-1,0.3-2.1,0.3c-1.1,0.3-1.1,0.3-1.1,0c-1,0-1-0.3-1-0.6c0-0.3-1-0.3-2.1,0c-1,0-2.1,0.3-3.1,0.6c-3.1,0.6-4.2,0.6-4.2-0.3
			l-2.1-0.3c0,0.3-1,0.3-2.1,0l-2.1,0.3c-1.1,0.3-2.1,0.3-3.1,0.3h-2.1c-1,0.3-1,0.3-2.1,0c-1-0.3-2.1-0.3-3.1-0.3
			c-2.1,0.6-4.2,0.8-5.2,0.8h-7.4h-4.2l-2.1-0.3c-2.1-0.6-3.1-0.6-3.1,0.3v0.3v0.3h-2.1c-4.2-0.6-6.3-0.8-7.3-0.8
			c-3.1,0.3-5.3,0.3-6.3-0.3c-1-0.3-1-0.3-1,0l-1.1,0.3c0,0.6-1,0.6-2.1,0.3c-1.1-0.3-3.1-0.3-7.4,0c-3.1,0.3-6.3,0.3-8.4,0.3
			c-1-0.3-3.1-0.6-4.2-0.3c-1,0.3-3.1,0-4.2-0.3c-1.1,0.3-2.1,0.3-5.3,0.3c-3.1,0-5.3,0.3-6.3,0.6c-1,0.3-2.1,0.3-4.2,0
			c-1.1-0.3-3.1-0.3-5.3-0.3c-3.1,0.3-5.3,0-6.3-0.3c-1.1-0.3-2.1-0.3-3.1-0.3h-3.1c-1.1-0.3-2.1,0-3.1,0.3c-1.1,0.3-1.1,0.3-2.1,0
			h-2.1c-1,0-2.1,0-3.1-0.3h-1c-1,0-1,0-1,0.3c-1.1,0.6-2.1,0.8-3.1,0.6c-1.1-0.3-1.1-0.6-1.1-0.8c0-0.3-1-0.3-2.1,0
			c-1.1,0.3-2.1,0.3-3.2,0c-1-0.3-1-0.3-2.1-0.3c-1.1,0.3-3.1,0.3-6.3,0c-3.1-0.3-5.3,0-6.3,0.3c-3.1-0.8-6.3-1.1-9.4-0.3
			c-1.1,0.3-2.1,0.3-4.2,0l-3.1-0.3h-9.4c-3.1-0.6-5.3-0.6-6.3,0.3h-1h-1.1l-1-0.3c-1-0.3-2.1-0.3-3.1,0l-1-0.3
			c-1.1,0-2.1,0-3.1,0.3c-1.1,0.3-2.1,0.3-3.1,0.3h-3.1c0-0.3-1.1-0.3-3.2,0c-1,0-3.1-0.3-4.2-0.6h-1h-2.1c-1-0.3-4.2,0-7.3,0.3
			c-1.1,0.3-2.1,0.3-2.1-0.3V67h-1c-1.1,0.3-3.1,0.6-6.3,0.6h-5.3c-1,0-2.1,0-3.1,0.3c-1,0-2.1,0-3.1,0h-5.3c-2.1,0-4.2-0.3-5.3-0.6
			c-1,0.3-2.1,0.6-3.1,0.3l-2.1-0.3c-5.3,0.8-8.4,0.6-9.4-0.3c-1.1-0.3-1.1-0.3-2.1-0.3V67v0.3l-1,0.3c-1.1-0.3-3.2-0.3-6.3-0.3
			c-4.2,0-32.5-0.6-34.6-0.8c-1-0.3-1-0.3-2.1-0.3c-5.2-0.3-8.4,0-9.4,0.3c-2.1,0.3-3.1,0.3-3.1,0c-1-0.3-3.1-0.3-6.3-0.3
			c-1,0-2.1,0-4.2-0.3c0-0.3-2.1,0.6-3.1,0.3h-1.1c-1,0-1,0-1-0.3c-1.9-0.2-5.5-0.3-11.6-0.1v0c-6.1-0.2-9.7-0.2-11.6,0.1
			c0,0.3,0,0.3-1,0.3h-1.1c-1,0.3-1,0-1-0.6s-1.1-0.6-2.1-0.3c1,0.3,0,0.3,0,0.6c-2.1,0.3-3.1,0.3-4.2,0.3c-3.1,0-5.3,0-6.3,0.3
			c0,0.3-1.1,0.3-3.1,0c-1.1-0.3-4.2-0.6-9.4-0.3c-1.1,0-1.1,0-2.1,0.3c-2.1,0.3-3.1,0-4.2-0.8c0-0.3-1-0.3-2.1-0.3
			c-2.1,0-3.1,0-4.2,0.3c-3.1,0.6-4.2,0.6-5.2-0.3c0-0.3,0-0.3-1.1-0.3c-1,0-2.1,0-2.1,0.3c0,0.3-1.1,0.3-2.1,0.3h-2.1
			c-1,0.3-1,0.3-1,0c-1,0-1,0-1-0.3c0-0.3-1.1-0.3-2.1-0.3c-1,0-1,0.3-1,0.6c0,1.1-2.1,1.7-6.3,1.7c-3.1,0-5.3,0-6.3,0.3l-1-0.3V67
			v-0.3c-1,0-1,0-2.1,0.3c-1,0.8-4.2,1.1-9.4,0.3l-2.1,0.3c-1.1,0.3-2.1,0-3.1-0.3c-1.1,0.3-3.1,0.6-5.3,0.6h-5.3c-1,0-2.1,0-3.1,0
			c-1-0.3-2.1-0.3-3.1-0.3h-5.3c-3.1,0-5.2-0.3-6.3-0.6h-1v0.8c0,0.6-1,0.6-2.1,0.3c-3.1-0.3-6.3-0.6-7.3-0.3h-2.1h-1
			c-1,0.3-3.1,0.6-4.2,0.6c-2.1-0.3-3.2-0.3-3.2,0h-3.1c-1,0-2.1,0-3.1-0.3c-1-0.3-2.1-0.3-3.1-0.3l-1,0.3c-1-0.3-2.1-0.3-3.1,0
			l-1,0.3h-1.1h-1c-1-0.8-3.1-0.8-6.3-0.3h-9.4l-3.1,0.3c-2.1,0.3-3.1,0.3-4.2,0c-3.1-0.8-6.3-0.6-9.4,0.3c-1-0.3-3.1-0.6-6.3-0.3
			c-3.1,0.3-5.2,0.3-6.3,0c-1,0-1,0-2.1,0.3c-1.1,0.3-2.1,0.3-3.2,0c-1-0.3-2.1-0.3-2.1,0c0,0.3,0,0.6-1.1,0.8c-1,0.3-2.1,0-3.1-0.6
			c0-0.3,0-0.3-1-0.3h-1c-1.1,0.3-2.1,0.3-3.1,0.3h-2.1c-1,0.3-1,0.3-2.1,0c-1-0.3-2.1-0.6-3.1-0.3h-3.1c-1,0-2.1,0-3.1,0.3
			c-1,0.3-3.1,0.6-6.3,0.3c-2.1,0-4.2,0-5.3,0.3c-2.1,0.3-3.1,0.3-4.2,0c-1-0.3-3.1-0.6-6.3-0.6c-3.1,0-4.2,0-5.3-0.3
			c-1,0.3-3.1,0.6-4.2,0.3c-1-0.3-3.1,0-4.2,0.3c-2.1,0-5.3,0-8.4-0.3c-4.2-0.3-6.3-0.3-7.4,0c-1,0.3-2.1,0.3-2.1-0.3l-1.1-0.3
			c0-0.3,0-0.3-1,0c-1,0.6-3.1,0.6-6.3,0.3c-1,0-3.1,0.3-7.3,0.8h-2.1v-0.3v-0.3c0-0.8-1.1-0.8-3.1-0.3l-2.1,0.3H899h-7.4
			c-1,0-3.1-0.3-5.2-0.8c-1.1,0-2.1,0-3.1,0.3c-1.1,0.3-1.1,0.3-2.1,0H879c-1,0-2.1,0-3.1-0.3l-2.1-0.3c-1.1,0.3-2.1,0.3-2.1,0
			l-2.1,0.3c0,0.8-1,0.8-4.2,0.3c-1.1-0.3-2.1-0.6-3.1-0.6c-1.1-0.3-2.1-0.3-2.1,0c0,0.3,0,0.6-1,0.6c0,0.3,0,0.3-1.1,0
			c-1,0-1,0-2.1-0.3c-1.1-0.3-2.1-0.3-3.1-0.3v0.6c0,0.3-1.1,0.3-2.1,0l-2.1-0.6c-1-0.3-3.1-0.3-4.2,0c-5.3,0-11.5,0-21-0.3
			c-3.1,0-4.2,0-5.3,0.3H815c-1-0.3-3.1,0-4.2,0.3h-2.1c-1,0.3-3.1,0-4.2-0.3c-1.1-0.3-2.1-0.6-2.1-0.3l-5.3,0.3
			c-1,0.3-3.1,0.6-5.2,0.3l-1.1,0.3h-1c-1,0-1,0-2.1-0.3c-3.1,0-4.2,0-5.2,0.3v0.3c-1.1-0.3-2.1-0.6-3.1-0.6l-2.1,0.3h-2.1
			c-1,0-2.1,0-3.1-0.3c-1,0-2.1,0-2.1,0.3c-1,0.3-2.1,0.3-3.1,0l-2.1-0.6l-1.1,0.3c-3.1-0.3-6.3-0.3-7.3,0c-1,0.3-2.1,0.3-4.2,0
			c-2.1-0.3-3.1-0.3-4.2,0c-1,0.3-3.1,0.6-4.2,0.3l-4.2-0.6c-1.1,0-1.1,0-2.1-0.3c-3.1-0.6-5.3-0.3-6.3,0.6c0,0.3-1.1,0.3-2.1,0
			h-5.3c-1-0.3-2.1-0.3-5.2-0.3c-3.1,0-5.3-0.3-6.3-0.6c-1.1,0.3-3.1,0.6-5.3,0.6h-6.3c-1.1,0.3-2.1,0.3-3.1,0l-1.1-0.6l-1,0.3
			c-1,0.3-2.1,0-3.1-0.3c-2.1,0.3-4.2,0.3-7.3,0c-3.1-0.3-5.3-0.3-6.3,0h-4.2c-4.2,0-6.3,0-7.3,0.3c-1.1-0.3-2.1-0.3-3.1-0.3h-4.2
			h-3.1c-5.2-0.3-7.3-0.3-8.4,0.3c-1.1-0.3-2.1-0.3-5.3-0.3h-4.2c-2.1,0-3.1,0-4.2-0.3c-0.5-0.1-1.3-0.2-2-0.2
			c-6.5-0.2-10.4-0.2-12.4,0.1c0,0.3,0,0.3-1.1,0.3h-1.1c-1.1,0.3-1.1,0-1.1-0.6c0-0.6-1.1-0.6-2.3-0.3c1.1,0.3,0,0.3,0,0.6
			c-2.3,0.3-3.4,0.3-4.5,0.3c-3.4,0-5.6-1-6.8-0.7c0,0.3-1.1,0.3-3.4,0c-1.1-0.3-4.5-0.6-10.1-0.3c-1.1,0-1.1,0-2.3,0.3
			c-2.3,0.3-15.8-0.3-16.9-1.1c0-0.3-3.4-0.3-3.4,0c0,0.3-1.1,0.3-2.3,0.3h-2.3c-1.1,0.3-1.1,0.3-1.1,0c-1.1,0-1.1,0-1.1-0.3
			c0-0.3-1.1-0.3-2.3-0.3c-1.1,0-1.1,0.3-1.1,0.6c0,1.1-2.3,1.7-6.8,1.7c-3.4,0-5.6,0-6.8,0.3l-1.1-0.3V67v-0.3
			c-1.1,0-1.1,0-2.3,0.3c-1.1,0.8-4.5,1.1-10.1,0.3l-2.2,0.3c-1.1,0.3-2.3,0-3.4-0.3c-1.1,0.3-3.4,0.6-5.6,0.6h-5.6
			c-1.1,0-2.3,0-3.4,0c-1.1-0.3-2.3-0.3-3.4-0.3h-5.6c-3.4,0-5.6-0.3-6.8-0.6h-1.1v0.8c0,0.6-1.1,0.6-2.3,0.3
			c-3.4-0.3-6.8-0.6-7.9-0.3h-2.3h-1.1c-1.1,0.3-3.4,0.6-4.5,0.6c-2.3-0.3-3.4-0.3-3.4,0h-3.4c-1.1,0-2.2,0-3.4-0.3
			c-1.1-0.3-2.2-0.3-3.4-0.3l-1.1,0.3c-1.1-0.3-2.3-0.3-3.4,0l-1.1,0.3h-1.1h-1.1c-1.1-0.8-3.4-0.8-6.8-0.3h-10.1l-3.4,0.3
			c-2.3,0.3-3.4,0.3-4.5,0c-3.4-0.8-6.8-0.6-10.1,0.3c-1.1-0.3-3.4-0.6-6.8-0.3c-3.4,0.3-5.6,0.3-6.8,0c-1.1,0-1.1,0-2.2,0.3
			c-1.1,0.3-2.3,0.3-3.4,0c-1.1-0.3-2.2-0.3-2.2,0c0,0.3,0,0.6-1.1,0.8c-1.1,0.3-2.2,0-3.4-0.6c0-0.3,0-0.3-1.1-0.3h-1.1
			c-1.1,0.3-2.3,0.3-3.4,0.3h-2.3c-1.1,0.3-1.1,0.3-2.3,0c-1.1-0.3-2.2-0.6-3.4-0.3h-3.4c-1.1,0-2.2,0-3.4,0.3
			c-1.1,0.3-3.4,0.6-6.8,0.3c-2.3,0-4.5,0-5.6,0.3c-2.2,0.3-3.4,0.3-4.5,0c-1.1-0.3-3.4-0.6-6.8-0.6c-3.4,0-4.5,0-5.6-0.3
			c-1.1,0.3-3.4,0.6-4.5,0.3c-1.1-0.3-3.4,0-4.5,0.3c-2.3,0-5.6,0-9-0.3c-4.5-0.3-6.8-0.3-7.9,0c-1.1,0.3-2.2,0.3-2.2-0.3l-1.1-0.3
			c0-0.3,0-0.3-1.1,0c-1.1,0.6-3.4,0.6-6.8,0.3c-1.1,0-3.4,0.3-7.9,0.8h-2.3v-0.3v-0.3c0-0.8-1.1-0.8-3.4-0.3l-2.3,0.3h-4.5h-7.9
			c-1.1,0-3.4-0.3-5.6-0.8c-1.1,0-2.3,0-3.4,0.3c-1.1,0.3-1.1,0.3-2.3,0h-2.3c-1.1,0-2.2,0-3.4-0.3l-2.2-0.3c-1.1,0.3-2.3,0.3-2.3,0
			l-2.3,0.3c0,0.8-1.1,0.8-4.5,0.3c-1.1-0.3-2.3-0.6-3.4-0.6c-1.1-0.3-2.3-0.3-2.3,0c0,0.3,0,0.6-1.1,0.6c0,0.3,0,0.3-1.1,0
			c-1.1,0-1.1,0-2.2-0.3c-1.1-0.3-2.3-0.3-3.4-0.3v0.6c0,0.3-1.1,0.3-2.3,0l-2.3-0.6c-1.1-0.3-3.4-0.3-4.5,0c-5.6,0-12.4,0-22.5-0.3
			c-3.4,0-4.5,0-5.6,0.3h-3.4c-1.1-0.3-3.4,0-4.5,0.3H189c-1.1,0.3-3.4,0-4.5-0.3c-1.1-0.3-2.3-0.6-2.3-0.3l-5.6,0.3
			c-1.1,0.3-3.4,0.6-5.6,0.3l-1.1,0.3h-1.1c-1.1,0-1.1,0-2.3-0.3c-3.4,0-4.5,0-5.6,0.3v0.3c-1.1-0.3-2.3-0.6-3.4-0.6l-2.3,0.3H153
			c-1.1,0-2.3,0-3.4-0.3c-1.1,0-2.3,0-2.3,0.3c-1.1,0.3-2.2,0.3-3.4,0l-2.2-0.6l-1.1,0.3c-3.4-0.3-6.8-0.3-7.9,0
			c-1.1,0.3-2.3,0.3-4.5,0c-2.3-0.3-3.4-0.3-4.5,0c-1.1,0.3-3.4,0.6-4.5,0.3l-4.5-0.6c-1.1,0-1.1,0-2.3-0.3
			c-3.4-0.6-5.6-0.3-6.8,0.6c0,0.3-1.1,0.3-2.3,0h-5.6c-1.1-0.3-2.2-0.3-5.6-0.3c-3.4,0-5.6-0.3-6.8-0.6c-1.1,0.3-3.4,0.6-5.6,0.6
			h-6.8c-1.1,0.3-2.3,0.3-3.4,0l-1.1-0.6l-1.1,0.3c-1.1,0.3-2.3,0-3.4-0.3c-2.3,0.3-4.5,0.3-7.9,0c-3.4-0.3-5.6-0.3-6.8,0h-4.5
			c-4.5,0-6.8,0-7.9,0.3c-1.1-0.3-2.3-0.3-3.4-0.3h-4.5h-3.4c-5.6-0.3-7.9-0.3-9,0.3c-1.1-0.3-2.3-0.3-5.6-0.3H6.7
			c-2.2,0-3.4,0-4.5-0.3c-0.5-0.1-1.4-0.2-2.2-0.2V0H3036.3z"/>
	</g>
</g>
</svg>
